<?xml version="1.0" encoding="UTF-8" standalone="no"?>
<!-- Created with Inkscape (http://www.inkscape.org/) -->

<svg
   xmlns:dc="http://purl.org/dc/elements/1.1/"
   xmlns:cc="http://creativecommons.org/ns#"
   xmlns:rdf="http://www.w3.org/1999/02/22-rdf-syntax-ns#"
   xmlns:svg="http://www.w3.org/2000/svg"
   xmlns="http://www.w3.org/2000/svg"
   xmlns:xlink="http://www.w3.org/1999/xlink"
   version="1.0"
   width="200"
   height="160"
   id="svg">
  <title
     id="title">Logo proposal for IOI 2012</title>
  <metadata
     id="metadata">
    <rdf:RDF>
      <cc:Work
         rdf:about="">
        <dc:format>image/svg+xml</dc:format>
        <dc:type
           rdf:resource="http://purl.org/dc/dcmitype/StillImage" />
        <dc:title>Logo proposal for IOI 2012</dc:title>
        <dc:date>Sep 15, 2011</dc:date>
        <dc:creator>
          <cc:Agent>
            <dc:title>Luca Wehrstedt</dc:title>
          </cc:Agent>
        </dc:creator>
        <cc:license
           rdf:resource="http://creativecommons.org/licenses/by-sa/3.0/" />
      </cc:Work>
      <cc:License
         rdf:about="http://creativecommons.org/licenses/by-sa/3.0/">
        <cc:permits
           rdf:resource="http://creativecommons.org/ns#Reproduction" />
        <cc:permits
           rdf:resource="http://creativecommons.org/ns#Distribution" />
        <cc:requires
           rdf:resource="http://creativecommons.org/ns#Notice" />
        <cc:requires
           rdf:resource="http://creativecommons.org/ns#Attribution" />
        <cc:permits
           rdf:resource="http://creativecommons.org/ns#DerivativeWorks" />
        <cc:requires
           rdf:resource="http://creativecommons.org/ns#ShareAlike" />
      </cc:License>
    </rdf:RDF>
  </metadata>
  <defs
     id="defs">
    <linearGradient
       x1="142.9326"
       y1="434.2764"
       x2="181.82518"
       y2="599.19299"
       id="linearGradient2913-2-8"
       xlink:href="#linearGradient3813-3-8"
       gradientUnits="userSpaceOnUse"
       gradientTransform="translate(-78.5432,-308.431)" />
    <linearGradient
       id="linearGradient3813-3-8">
      <stop
         id="stop3815-8-4"
         style="stop-color:#7b7b7b;stop-opacity:1"
         offset="0" />
      <stop
         id="stop3817-2-3"
         style="stop-color:#919191;stop-opacity:1"
         offset="0.61307335" />
      <stop
         id="stop3819-0-1"
         style="stop-color:#7d7d7d;stop-opacity:1"
         offset="1" />
    </linearGradient>
    <linearGradient
       x1="174.23402"
       y1="446.1658"
       x2="178.92662"
       y2="459.80579"
       id="linearGradient2915-6-4"
       xlink:href="#linearGradient3823-1-9"
       gradientUnits="userSpaceOnUse"
       gradientTransform="translate(-78.4182,-307.681)" />
    <linearGradient
       id="linearGradient3823-1-9">
      <stop
         id="stop3825-5-2"
         style="stop-color:#848484;stop-opacity:1"
         offset="0" />
      <stop
         id="stop3829-2-0"
         style="stop-color:#cacaca;stop-opacity:1"
         offset="1" />
    </linearGradient>
    <linearGradient
       x1="85.342316"
       y1="584.987"
       x2="107.32287"
       y2="623.48492"
       id="linearGradient2917-3-6"
       xlink:href="#linearGradient3723-0-8"
       gradientUnits="userSpaceOnUse"
       gradientTransform="matrix(0.985774,0,0,0.985774,-1.3699,-301.58547)" />
    <linearGradient
       id="linearGradient3723-0-8">
      <stop
         id="stop3725-7-9"
         style="stop-color:#868686;stop-opacity:1"
         offset="0" />
      <stop
         id="stop3727-9-2"
         style="stop-color:#333333;stop-opacity:1"
         offset="1" />
    </linearGradient>
    <linearGradient
       x1="61.572643"
       y1="441.14804"
       x2="78.543205"
       y2="585.39783"
       id="linearGradient2919-5-6"
       xlink:href="#linearGradient3759-6-6"
       gradientUnits="userSpaceOnUse"
       gradientTransform="translate(-78.5432,-308.431)" />
    <linearGradient
       id="linearGradient3759-6-6">
      <stop
         id="stop3761-0-4"
         style="stop-color:#7b7b7b;stop-opacity:1"
         offset="0" />
      <stop
         id="stop3763-4-9"
         style="stop-color:#969696;stop-opacity:1"
         offset="0.39824781" />
      <stop
         id="stop3765-6-5"
         style="stop-color:#7d7d7d;stop-opacity:1"
         offset="1" />
    </linearGradient>
    <linearGradient
       x1="135.8578"
       y1="377.70193"
       x2="86.713882"
       y2="372.21707"
       id="linearGradient2921-0-0"
       xlink:href="#linearGradient3723-0-8"
       gradientUnits="userSpaceOnUse"
       gradientTransform="translate(-78.719977,-308.431)" />
    <linearGradient
       x1="97.757515"
       y1="351.4426"
       x2="101.11627"
       y2="376.72165"
       id="linearGradient2923-6-4"
       xlink:href="#linearGradient3767-9-8"
       gradientUnits="userSpaceOnUse"
       gradientTransform="translate(-78.5432,-308.431)" />
    <linearGradient
       id="linearGradient3767-9-8">
      <stop
         id="stop3769-4-7"
         style="stop-color:#7b7b7b;stop-opacity:1"
         offset="0" />
      <stop
         id="stop3771-6-1"
         style="stop-color:#aaaaaa;stop-opacity:1"
         offset="0.59164107" />
      <stop
         id="stop3773-3-7"
         style="stop-color:#7d7d7d;stop-opacity:1"
         offset="1" />
    </linearGradient>
    <linearGradient
       x1="111.19255"
       y1="356.92267"
       x2="107.12668"
       y2="393.6922"
       id="linearGradient2925-8-2"
       xlink:href="#linearGradient3759-6-6"
       gradientUnits="userSpaceOnUse"
       gradientTransform="translate(-78.5432,-308.431)" />
    <linearGradient
       x1="85.342316"
       y1="584.987"
       x2="107.32287"
       y2="623.48492"
       id="linearGradient3228"
       xlink:href="#linearGradient3723-0-8"
       gradientUnits="userSpaceOnUse"
       gradientTransform="matrix(0.985774,0,0,0.985774,-77.36992,-301.58547)" />
    <linearGradient
       x1="61.572643"
       y1="441.14804"
       x2="78.543205"
       y2="585.39783"
       id="linearGradient3307"
       xlink:href="#linearGradient3759-6-6"
       gradientUnits="userSpaceOnUse"
       gradientTransform="translate(-78.5432,-308.431)" />
    <linearGradient
       x1="135.8578"
       y1="377.70193"
       x2="86.713882"
       y2="372.21707"
       id="linearGradient3309"
       xlink:href="#linearGradient3723-0-8"
       gradientUnits="userSpaceOnUse"
       gradientTransform="translate(-78.719977,-308.431)" />
    <linearGradient
       x1="97.757515"
       y1="351.4426"
       x2="101.11627"
       y2="376.72165"
       id="linearGradient3311"
       xlink:href="#linearGradient3767-9-8"
       gradientUnits="userSpaceOnUse"
       gradientTransform="translate(-78.5432,-308.431)" />
    <linearGradient
       x1="111.19255"
       y1="356.92267"
       x2="107.12668"
       y2="393.6922"
       id="linearGradient3313"
       xlink:href="#linearGradient3759-6-6"
       gradientUnits="userSpaceOnUse"
       gradientTransform="translate(-78.5432,-308.431)" />
    <linearGradient
       x1="85.342316"
       y1="584.987"
       x2="107.32287"
       y2="623.48492"
       id="linearGradient3315"
       xlink:href="#linearGradient3723-0-8"
       gradientUnits="userSpaceOnUse"
       gradientTransform="matrix(0.985774,0,0,0.985774,-77.36992,-301.58547)" />
    <linearGradient
       x1="142.9326"
       y1="434.2764"
       x2="181.82518"
       y2="599.19299"
       id="linearGradient3317"
       xlink:href="#linearGradient3813-3-8"
       gradientUnits="userSpaceOnUse"
       gradientTransform="translate(-78.5432,-308.431)" />
    <linearGradient
       x1="174.23402"
       y1="446.1658"
       x2="178.92662"
       y2="459.80579"
       id="linearGradient3319"
       xlink:href="#linearGradient3823-1-9"
       gradientUnits="userSpaceOnUse"
       gradientTransform="translate(-78.4182,-307.681)" />
    <linearGradient
       x1="85.342316"
       y1="584.987"
       x2="107.32287"
       y2="623.48492"
       id="linearGradient3321"
       xlink:href="#linearGradient3723-0-8"
       gradientUnits="userSpaceOnUse"
       gradientTransform="matrix(0.985774,0,0,0.985774,-1.3699,-301.58547)" />
  </defs>
  <g
     transform="translate(0,-150.76154)"
     id="layer2"
     style="display:inline" />
  <g
     transform="matrix(0.2,0,0,0.2,0,97.847692)"
     id="layer1"
     style="display:inline">
    <g
       transform="matrix(4.9656718,0,0,4.9570336,-6.8690328,-854.55201)"
       id="g4255">
      <path
         d="m 161.03397,136.78793 c -0.6288,7.97369 -0.59751,14.37925 -3.53785,21.33047 -2.94034,6.95122 -5.65243,10.38322 -10.91003,15.64041 -5.25759,5.2572 -11.26092,11.31123 -18.21267,14.25135 -6.95175,2.94012 -17.16588,5.5943 -25.18869,5.5943 -8.022814,0 -16.180074,-1.62583 -23.131834,-4.56594 -6.95175,-2.94012 -15.26904,-5.9091 -20.52665,-11.16629 -5.25759,-5.2572 -6.94125,-12.03134 -9.88158,-18.98256 -2.94034,-6.95123 -5.85182,-14.33661 -5.85182,-22.35883 0,-8.0222 2.39725,-16.17885 5.33759,-23.13007 2.94034,-6.95123 7.1951,-13.21119 12.45268,-18.468389 5.25759,-5.25719 12.80357,-8.48325 19.75532,-11.42337 6.95175,-2.94012 13.30927,-5.5943 21.332084,-5.5943 8.02281,0 17.97983,1.11165 24.93158,4.05177 6.95175,2.94012 12.95508,9.25124 18.21267,14.50843 5.25759,5.257189 8.74101,10.745899 11.68135,17.697119 2.94034,6.95122 4.19458,14.28809 3.53785,22.6159 z"
         id="path3098-7-77"
         style="fill:#f5c878;fill-opacity:1;stroke:none" />
      <path
         d="m 113.42327,185.65441 c -6.99541,1.09519 -12.50498,2.43687 -19.094354,1.33195 -6.58938,-1.10493 -10.10141,-2.73564 -15.70762,-6.18343 -5.60621,-3.44779 -12.05165,-7.37412 -16.01029,-12.75617 -3.95864,-5.38206 -8.34063,-13.63173 -9.98728,-20.53944 -1.64665,-6.9077 -1.92087,-14.26487 -0.81588,-20.85384 1.10499,-6.58896 1.95456,-14.35959 5.40256,-19.96548 3.448,-5.60585 8.93583,-8.445879 14.31821,-12.404269 5.38239,-3.95839 11.14457,-7.98104 18.0527,-9.62759 6.90812,-1.64655 14.424064,-1.25665 21.013434,-0.15173 6.58937,1.10492 12.85327,3.48345 18.45948,6.93123 5.60621,3.44779 9.93304,9.282779 13.89167,14.664829 3.95864,5.38206 7.54907,10.31116 9.19573,17.21886 1.64665,6.90771 2.73303,15.70894 1.62804,22.29791 -1.10499,6.58897 -5.3075,13.05324 -8.7555,18.6591 -3.44801,5.60586 -7.45951,9.73166 -12.84189,13.69005 -5.38239,3.95839 -11.44292,6.5442 -18.74901,7.68802 z"
         id="path3098-5-4-1"
         style="fill:#dc341c;fill-opacity:1;stroke:none" />
      <path
         d="m 116.78266,80.783131 c 1.8662,1.55114 4.35863,2.00806 6.43017,3.27354 5.48585,2.87555 11.13256,5.68264 15.69545,9.92292 2.01257,0.96434 0.16927,-1.41141 -0.6369,-1.92597 -4.78623,-4.70284 -10.30656,-8.9821 -16.9495,-10.58897 -1.49825,-0.31084 -2.99655,-1.0137 -4.53922,-0.68152 z"
         id="path3826-3-5"
         style="fill:#d2a34e;fill-opacity:1;stroke:none" />
      <path
         d="m 72.978436,89.104531 c -5.39364,2.57984 -10.20723,6.28829 -13.87601,11.026279 -1.21414,1.76136 -3.06555,3.3214 -3.47082,5.48756 1.8005,-0.98374 2.7785,-2.99468 4.34767,-4.30383 4.19408,-4.194289 9.05038,-7.849419 13.62868,-11.613399 1.02508,-1.30456 0.39027,-0.62887 -0.62952,-0.59661 z"
         id="path3824-4-9"
         style="fill:#d2a34e;fill-opacity:1;stroke:none" />
      <path
         d="m 144.71995,100.24001 c 5.98172,6.28326 9.98575,14.33425 11.51562,22.83608 0.91108,4.04151 1.80068,8.17332 2.33715,12.26576 0.71486,1.88145 0.9927,-1.37804 0.87815,-2.1984 0.0957,-10.85415 -4.20531,-21.41481 -10.79244,-29.87835 -1.35358,-1.39955 -2.35139,-3.391579 -4.25268,-4.055379 0.10474,0.34343 0.20947,0.68686 0.3142,1.030289 z"
         id="path3822-2-7"
         style="fill:#d2a34e;fill-opacity:1;stroke:none" />
      <path
         d="m 157.77543,146.59263 c -1.59998,6.87913 -5.55518,12.95287 -9.03877,19.02745 -1.20376,2.04313 -2.6937,3.89466 -4.0298,5.83507 -0.74219,1.83239 1.62658,-0.30536 2.09345,-0.94668 6.51171,-6.24996 10.9385,-14.72709 11.8958,-23.76239 -0.29023,-1.22633 -0.19496,-1.30652 -0.92068,-0.15345 z"
         id="path3818-2-7"
         style="fill:#d2a34e;fill-opacity:1;stroke:none" />
      <path
         d="m 138.74711,178.23672 c -5.32352,4.0469 -11.16197,7.49142 -17.43451,9.83523 -1.82902,1.31625 1.18816,0.81072 2.01673,0.34343 5.35028,-1.58054 10.2685,-4.3571 14.41598,-8.05445 0.69787,-0.58571 2.25977,-1.78509 1.84993,-2.34922 -0.28271,0.075 -0.56542,0.15001 -0.84813,0.22501 z"
         id="path3098-9-1-6"
         style="fill:#d2a34e;fill-opacity:1;stroke:none" />
      <path
         d="m 87.929446,189.275 c 1.66855,1.40588 4.06178,1.44382 6.09404,2.11903 5.66179,1.43236 11.722224,1.77253 17.398314,0.14789 1.15507,-0.32115 2.40326,-0.46375 3.33166,-1.29509 -2.31425,-0.50367 -4.70455,0.28442 -7.06547,0.14799 -6.25517,0.056 -12.597114,0.25618 -18.699034,-1.32441 -0.35317,0.0682 -0.70634,0.13639 -1.05951,0.20459 z"
         id="path3812-0-7"
         style="fill:#d2a34e;fill-opacity:1;stroke:none" />
      <path
         d="m 53.392646,163.53457 c 4.3519,9.30852 12.17967,16.60926 21.17151,21.38176 2.5981,1.32502 5.33151,2.60384 8.16453,3.26677 1.87679,-0.11945 -0.98105,-1.3696 -1.74376,-1.54017 -7.84835,-2.86609 -14.58715,-8.19139 -19.69952,-14.7074 -2.55668,-2.90337 -5.01997,-5.91735 -7.27936,-9.01168 -1.03492,-0.92477 -0.67827,-0.26958 -0.6134,0.61072 z"
         id="path3807-5-3"
         style="fill:#d2a34e;fill-opacity:1;stroke:none" />
      <path
         d="m 48.770326,121.48443 c -1.91562,5.78182 -3.02135,11.90815 -2.3126,18.01835 0.31606,3.60357 1.16145,7.23786 2.65867,10.52155 1.07959,1.56235 0.66551,-1.18202 0.37732,-1.91317 -1.37914,-6.49638 -0.86629,-13.22579 -0.64036,-19.82327 0.0498,-2.37339 0.65471,-4.7129 0.73595,-7.04372 -0.0981,-1.31513 -0.30354,-0.2132 -0.81898,0.24026 z"
         id="path3803-6-6"
         style="fill:#d2a34e;fill-opacity:1;stroke:none" />
      <path
         d="m 103.404,79.036761 c -6.331034,0.17434 -12.789704,1.60763 -18.192924,4.91269 -1.38611,1.25491 1.25348,0.50806 1.94214,0.12183 6.26371,-2.1506 13.011274,-2.47516 19.597074,-3.05912 2.35125,-0.2481 4.76679,0.0828 7.07963,-0.13305 1.42042,-0.49355 -1.50489,-1.05771 -2.21284,-1.09704 -2.71843,-0.43253 -5.44927,-0.79583 -8.21308,-0.74531 z"
         id="path3818-1-8-5"
         style="fill:#d2a34e;fill-opacity:1;stroke:none" />
    </g>
    <path
       d="m 498.75624,-431.5002 c -4.37029,-0.0546 -8.65397,0.0446 -13.03489,0.15466 -16.79867,0.13187 -32.68886,3.1603 -47.7946,8.21008 -0.35455,0.17748 -0.73064,0.28851 -1.08624,0.46448 -1.38054,0.83278 -2.72678,1.78453 -4.18977,2.47852 -1.76609,1.00642 -3.56065,1.84589 -5.43122,2.63342 -1.56115,1.07563 -3.38182,1.90212 -4.96566,2.94324 -2.04864,0.81553 -3.68264,2.163 -5.58638,3.25305 -1.33179,0.71104 -2.58215,1.74844 -4.0346,2.1687 -1.61272,0.51241 -3.01106,1.38445 -4.50016,2.16871 -1.92678,0.80948 -3.44066,2.25837 -5.43119,2.94323 -1.56523,0.63049 -2.87225,1.79291 -4.50015,2.32361 -1.78937,0.74361 -3.64808,1.56652 -5.43119,2.32362 -1.44487,0.80457 -2.94842,1.59174 -4.34497,2.47851 -2.66454,1.82463 -5.49273,3.38848 -8.2244,5.11194 -4.71456,2.84861 -9.29229,5.67769 -13.81076,8.82972 -1.29973,1.10666 -2.71406,2.08805 -4.1898,2.94324 -2.00818,1.30766 -3.95973,2.87934 -5.58638,4.64721 -1.16862,1.0788 -2.47123,1.83118 -3.72424,2.78833 -1.21599,1.18697 -2.44369,2.47758 -3.87944,3.40796 -1.8617,1.42902 -3.28983,3.16993 -4.96567,4.80213 -1.16282,1.04569 -2.67305,1.45544 -3.87943,2.47852 -1.83422,1.41573 -3.53125,3.16164 -5.43122,4.49231 -1.29744,0.98497 -2.39751,2.13049 -3.56907,3.25306 -1.26972,0.986 -2.27795,2.29044 -3.56908,3.25305 -2.03,1.99223 -3.82437,4.24748 -6.05191,6.04138 -1.24821,0.67768 -1.44257,2.37606 -2.63799,3.09815 -0.84704,1.13367 -2.15511,1.87564 -3.10356,2.94323 -1.97957,1.96027 -4.30652,3.52976 -6.20709,5.57667 -0.50664,1.332 -1.486,2.42057 -2.638,3.25306 -1.29243,0.88864 -2.03216,2.33049 -3.25875,3.25304 -0.97451,1.16288 -2.10283,2.27023 -3.10352,3.40796 l -6.51746,6.50611 c -1.03873,1.01267 -1.77434,2.26532 -2.48283,3.56287 -0.70575,1.30092 -1.87247,2.29565 -2.32767,3.71778 -0.91709,1.78265 -2.00105,3.50794 -2.94836,5.26685 -1.89314,4.25298 -3.28466,8.67421 -4.96568,13.01221 -0.86462,2.92757 -1.74469,5.91221 -2.638,8.82971 -0.91002,2.27152 -1.4008,4.61312 -2.0173,6.97084 -0.52612,1.57048 -0.95703,3.16407 -1.24142,4.80212 -0.31969,1.79058 -0.9977,3.49882 -1.3966,5.26684 -0.42392,1.47914 -0.36736,3.07144 -0.77589,4.49232 -0.28021,0.54834 -0.41195,1.11929 -0.62069,1.70398 -3.91324,22.88053 -5.45456,46.51041 -7.91405,68.46902 -0.9937,86.48052 43.09687,175.111038 121.19343,216.560412 47.97587,36.461362 110.97511,45.550129 168.52251,30.361832 82.14104,-8.241263 146.44148,-69.190075 180.7815,-140.655825 1.90051,-3.200307 3.64737,-6.462634 5.27602,-9.759168 0.16082,-0.512516 0.31184,-1.034431 0.46528,-1.549065 0.46826,-1.489446 0.63202,-3.00025 1.08624,-4.492316 0.30539,-1.52127 0.69332,-3.03089 1.24141,-4.49232 0.73374,-1.76768 1.02791,-3.71058 1.3966,-5.57667 0.22247,-1.53067 1.00787,-2.87655 1.39659,-4.33739 0.60701,-2.2613 1.91736,-4.28139 2.63802,-6.5061 0.54479,-1.51189 1.23204,-2.93639 2.0173,-4.33742 0.79336,-1.39307 1.42251,-2.84865 2.0173,-4.3374 0.0248,-0.0634 0.13056,-0.0912 0.15497,-0.15465 0.0202,-0.0977 -0.0201,-0.21217 0,-0.30982 8.81259,-41.03358 2.32807,-85.55865 -11.17276,-125.16509 -0.94462,-1.77398 -2.22978,-3.37644 -2.94836,-5.26685 -1.14246,-1.84997 -1.76092,-3.9058 -2.94838,-5.73157 -0.79639,-1.39665 -1.32414,-2.96728 -2.17247,-4.33741 -0.79281,-1.47724 -1.35052,-2.96704 -2.32766,-4.3374 -0.85954,-1.73071 -0.99309,-3.75927 -2.01731,-5.42176 -0.62235,-1.28491 -1.87393,-2.36292 -2.0173,-3.87268 -0.38633,-1.45231 -0.90713,-2.82516 -1.55177,-4.1825 -0.56271,-1.02769 -1.23574,-2.02881 -1.70694,-3.09814 -9.59254,-15.52648 -19.66397,-31.01726 -30.88028,-45.69766 -0.41663,-0.40548 -0.82345,-0.83535 -1.24142,-1.23926 -1.90623,-1.56765 -3.44319,-3.49743 -4.96567,-5.42175 -0.90848,-1.25275 -2.17307,-2.17277 -3.10354,-3.40796 -1.78686,-1.81422 -3.24839,-3.84498 -5.12085,-5.57667 -1.92713,-1.79985 -3.70947,-3.88487 -5.58639,-5.73156 -2.35631,-1.99169 -4.20071,-4.33013 -6.20708,-6.66102 -1.43171,-1.38718 -2.84756,-2.86601 -4.18979,-4.3374 -1.28948,-1.29226 -2.78881,-2.37893 -4.03461,-3.71778 -1.79235,-1.66105 -3.54664,-3.38937 -5.12085,-5.26685 -2.06621,-1.9439 -3.71571,-4.24064 -6.05191,-5.88647 -1.27574,-1.00871 -2.60583,-2.07244 -3.72424,-3.25306 -0.33769,-0.20819 -0.51073,-0.48926 -0.77589,-0.77453 -16.15976,-12.19222 -34.10699,-21.94286 -54.46722,-27.88332 -28.90419,-9.9207 -59.25573,-14.48906 -89.84766,-14.8711 z m -10.55206,22.61647 0.15497,0 c 2.22696,0.0619 4.44234,0.22058 6.67263,0.15465 l 13.8108,0 c 2.3141,0.49372 4.63619,0.5256 6.98299,0.77454 1.20664,0.89043 2.78428,0.55945 4.18977,0.61963 1.89768,0.14425 3.8188,0.73354 5.74157,0.61963 1.59342,0.0699 3.07433,0.72948 4.6553,0.92944 2.53314,0.35146 5.05397,0.0873 7.60368,0.15466 1.86254,-0.0397 3.72193,0.45605 5.58638,0.46447 1.71829,0.0446 3.40702,0.27264 5.12086,0.30982 1.58325,-0.0882 3.22649,0.25479 4.81049,0.15465 1.49998,-0.056 2.98353,-0.0694 4.34497,0.61963 1.5846,0.2077 3.04933,0.53294 4.65532,0.46447 1.48621,0.48282 2.76671,1.41425 4.18978,2.0138 2.43632,1.06413 4.90674,2.34849 6.98298,4.02759 0.88156,1.28199 2.71205,1.19034 3.56908,2.47852 1.06558,1.07865 0.50744,2.80494 1.55177,3.87268 0.95981,1.22835 1.86932,2.55907 1.70695,4.1825 -0.0299,1.80401 0.64782,3.54492 1.08625,5.26685 0.50416,1.51427 0.17534,3.14474 0.77588,4.64721 0.65452,1.42719 0.59527,2.98657 0.77589,4.49232 0.52321,1.36155 0.0755,3.01174 1.08622,4.1825 0.81504,1.13213 1.26412,2.66158 1.39661,4.02758 -0.0101,1.58829 0.99601,2.83959 1.70694,4.1825 0.81477,1.34638 2.00758,2.3937 3.41391,3.09815 0.93652,0.9745 2.0755,1.77015 3.25872,2.47851 1.27231,0.83982 2.90859,0.89975 4.34496,1.39417 1.62779,0.47885 3.44529,0.57387 5.12086,0.30982 1.53141,-0.55608 3.0578,-0.2548 4.6553,-0.30982 1.94377,0.0639 3.9714,-0.46199 5.89674,0 1.51975,0.32518 3.13359,0.38764 4.65532,0 1.52565,-0.3579 2.99986,0.27264 4.50014,0.46447 1.75513,0.0605 3.62872,-0.30733 5.27602,0.46448 1.88617,0.85167 4.03287,1.48141 5.43121,3.09814 1.30116,0.99473 1.57105,2.67585 2.32766,4.02759 0.78337,1.6092 1.36398,3.29564 1.24142,5.11194 0.31581,1.59488 0.10876,3.39067 0.46529,4.95703 0.48017,1.43596 0.62273,2.93636 0,4.33741 0.0833,1.42386 0.58385,2.88366 0.77588,4.3374 0.0141,1.56241 -0.47473,3.18306 0.31036,4.64723 0.71148,1.49325 1.66533,2.74451 2.48283,4.1825 1.0486,0.9861 1.59009,2.65245 2.94836,3.25304 1.32503,0.70019 2.81365,1.16877 4.1898,1.70399 1.37444,0.7262 2.52345,1.85626 3.87941,2.63342 1.18512,0.64778 2.39068,1.12544 3.72427,1.39416 1.57242,0.25529 3.07871,0.91612 4.65531,1.23927 2.02272,0.60202 3.78657,1.70308 5.74156,2.47851 2.07257,0.97738 3.88995,2.3987 5.74156,3.71778 2.28782,1.50723 4.65556,2.90403 6.51745,4.95703 1.30124,1.08896 2.18022,2.57027 3.41389,3.71777 1.06252,1.01649 2.21709,2.09484 2.48283,3.56287 0.20411,1.74424 0.65474,3.53779 0.93108,5.26685 0.22145,1.63433 0.0347,3.32894 -0.15497,4.95703 -0.2319,1.5982 -0.51569,3.08967 -0.93108,4.64722 -0.62066,1.50902 -1.60355,2.8027 -2.17247,4.33741 -0.81059,1.49643 -1.71513,3.05606 -2.32767,4.64721 -0.64141,1.47378 -0.89321,3.07386 -1.24141,4.64722 -0.34462,2.02005 -1.02249,4.06606 -1.55177,6.04139 0.19653,1.55552 -0.61436,2.99648 -0.77589,4.49231 -0.31631,1.44468 0.52005,2.82997 0.93106,4.18249 0.62037,1.41177 1.32019,2.81392 2.48285,3.8727 1.21379,1.18898 2.47355,2.14817 3.87942,3.09814 1.33215,0.91779 2.93661,1.55893 4.34496,2.32361 1.34977,0.9054 2.60838,1.88441 4.1898,2.32361 2.27298,0.65175 4.64573,1.24347 6.82779,2.1687 2.65207,1.06928 5.65212,1.48111 8.06921,3.09814 1.35222,0.79595 2.50285,1.72341 3.87944,2.47852 1.34822,0.5765 2.67957,1.30895 3.87943,2.1687 1.34047,1.07018 2.94796,1.74905 4.18978,2.94324 1.13897,1.09213 2.5089,1.94777 3.41391,3.25305 1.07973,1.44934 1.90269,3.12754 3.10353,4.49231 1.03386,1.21507 1.82777,2.50123 2.63802,3.87269 1.41035,2.32668 3.41191,4.41464 4.0346,7.12573 0.67341,1.54402 0.69312,3.18341 1.08626,4.80213 0.4985,2.15339 1.07129,4.28575 1.86212,6.3512 0.29198,1.50183 -0.33568,2.98458 -0.93108,4.3374 -0.66732,1.56533 -1.71995,2.99069 -2.17246,4.64722 -0.84839,1.36725 -1.48564,2.96367 -2.32767,4.33741 -0.78721,1.45225 -1.45762,2.92381 -2.32765,4.3374 -0.85211,1.3446 -1.34333,2.75101 -2.01731,4.18249 -0.82151,1.58284 -1.9963,2.99014 -2.94836,4.49232 -0.96921,1.29264 -1.56057,2.94721 -2.94838,3.87268 -1.07204,1.17373 -2.04277,2.38038 -3.10352,3.56287 -1.31384,1.1891 -2.86919,2.1349 -4.34497,3.09815 -1.64708,0.60961 -3.31898,1.22835 -4.8105,2.1687 -1.47685,0.89574 -3.12237,1.42787 -4.50015,2.47851 -1.26038,0.86669 -2.56625,1.54997 -4.03461,2.0138 -1.4958,0.49843 -2.71409,1.75638 -4.18977,2.32361 -1.52452,0.47191 -2.58296,1.54878 -4.03462,2.1687 -1.0762,0.91398 -2.54987,1.49366 -3.41389,2.63342 -1.08242,1.14543 -1.45749,2.61246 -2.01731,4.0276 -0.52895,1.42554 -0.80842,2.97228 -0.93105,4.49231 -0.0141,1.61073 0.33021,3.18806 0.46526,4.80213 0.25128,1.59978 1.13859,3.04148 1.39661,4.64722 0.45733,1.40692 0.86591,2.87741 1.55177,4.1825 0.58634,1.47521 1.18608,2.99083 1.70694,4.4923 0.5294,1.41995 1.03276,2.9032 1.86214,4.1825 0.40867,1.54636 0.36994,3.1732 1.08622,4.64722 0.75563,1.39402 0.73196,2.97756 1.08625,4.49231 0.26369,2.730148 1.18016,5.447487 1.08624,8.210085 0.35306,1.660822 -0.16041,3.300789 -0.31035,4.957033 -0.1693,1.586701 -0.87793,3.04081 -0.93106,4.647235 -0.14347,1.553927 -0.41712,3.128667 -0.77589,4.647217 -0.20955,1.644989 -0.57011,3.220173 -1.08624,4.802114 l -1.55178,5.731586 c 0.0512,1.510199 -0.91725,2.751383 -1.24141,4.18248 -0.90737,2.180599 -1.28799,4.473883 -2.17248,6.661017 -0.55457,1.564192 -0.53143,3.305851 -1.24141,4.802134 -0.63258,2.257867 -1.35698,4.564725 -2.0173,6.815916 -1.13809,2.463106 -2.55346,4.703185 -4.03463,6.970834 -1.08384,1.016137 -1.88373,2.406533 -3.41388,2.788333 -1.51841,0.444647 -3.06943,0.693776 -4.50014,1.394167 -1.56669,0.525646 -3.18047,0.644402 -4.81052,0.619613 -1.7184,0.558563 -3.64956,0.472905 -5.43119,0.464494 -1.98949,-0.370304 -4.03352,-0.52728 -6.05191,-0.619634 -2.6834,-0.04961 -5.28542,0.05849 -7.91404,-0.619634 -1.56459,-0.02017 -2.96504,-0.718927 -4.50015,-0.929451 -2.3345,-0.52246 -4.78203,-0.83024 -7.13813,-1.239249 -1.46926,-0.817956 -3.20229,-0.601441 -4.8105,-0.929451 -1.58916,-0.06978 -3.06198,0.572096 -4.65532,0.619635 -1.89644,0.517759 -3.82471,1.34336 -5.43121,2.478516 -1.26236,0.606544 -2.63821,1.02834 -3.56908,2.168699 -1.09821,0.842261 -1.35066,2.411697 -1.70695,3.717785 -0.30886,1.686921 -0.0815,3.413151 -0.31035,5.111931 -0.0715,1.559736 -0.0605,3.088773 0,4.647216 0.21154,1.859246 0.56161,3.699351 0.46528,5.576668 -0.0904,1.519578 0.0101,3.035485 0.46528,4.4923172 0.50456,1.9316523 0.11078,3.934441 0.46529,5.886464 -0.0799,2.01281273 0.28155,4.06082 -0.15496,6.041403 -0.36896,1.536076 -0.90555,3.118259 -1.70696,4.492297 -0.35107,1.565483 -1.0912,2.9611418 -1.86212,4.3374188 -0.2195,1.357217 -0.89849,2.33574 -1.70697,3.407948 -0.93034,1.049315 -1.93511,2.171684 -2.638,3.407968 -0.69951,1.375671 -2.30356,1.793595 -3.25871,2.943231 -1.10824,1.068235 -2.20035,2.216541 -3.72427,2.633436 -2.24667,0.703839 -4.5416,1.616127 -6.8278,2.168699 -1.56245,0.112543 -2.97905,0.593838 -4.50014,0.929431 -1.5172,0.406971 -3.12183,0.442166 -4.65532,0.774553 -1.63186,0.187371 -3.23132,0.315747 -4.81049,0.774532 -1.51721,0.404975 -3.10052,0.225047 -4.65532,0.309818 -1.71946,-0.112544 -3.42591,0.233476 -5.12083,0.464473 -1.55093,0.424317 -3.12095,0.004 -4.65533,-0.309817 -1.48166,-0.259758 -3.03655,-0.05506 -4.50014,-0.464474 -1.8363,-0.365343 -3.44568,-1.277286 -4.96568,-2.323618 -1.62278,-1.154497 -3.46103,-1.998976 -5.12085,-3.09815 -1.49198,-0.788167 -2.94931,-1.805394 -4.18977,-2.943232 -1.08829,-1.234589 -2.50196,-2.032377 -3.72427,-3.098151 -1.33894,-1.12737 -2.65795,-2.153472 -3.87942,-3.407947 -1.73848,-1.437894 -3.18964,-3.254542 -4.65532,-4.9570338 -1.24977,-1.04748 -2.13018,-2.412744 -3.25872,-3.562866 -4.00382,-4.044947 -7.97204,-8.0116585 -11.94864,-12.0827852 -1.22021,-1.1622224 -2.28968,-2.4725665 -3.56909,-3.5628661 -1.26584,-0.7938549 -2.69437,-1.3772049 -4.03461,-2.0137809 -1.34877,-0.544444 -2.84538,-0.470928 -4.0346,0.309797 -1.44854,0.527925 -2.72015,1.496041 -3.87944,2.4785165 -1.21082,1.1199481 -2.32076,2.3638754 -3.25873,3.7177848 -1.03843,1.3006831 -2.4901,2.4259761 -3.10355,4.0275817 -1.43345,3.1424212 -3.48641,5.9438862 -4.81052,9.1395332 -1.22025,2.5212548 -2.747,4.8860978 -4.18977,7.2806508 -0.74822,1.443641 -2.01651,2.541323 -2.94836,3.872684 -1.40476,1.854727 -2.91511,3.565245 -4.50015,5.26685 -2.43148,1.899341 -4.35272,4.392662 -6.98297,6.041382 -1.43271,0.571047 -2.93492,1.18457 -4.34496,1.858882 -1.41524,0.555295 -2.97076,0.675503 -4.34497,1.394167 -1.4683,0.627258 -3.1161,0.376234 -4.65532,0.619634 -1.5974,0.01411 -3.06919,0.84101 -4.6553,0.774533 -1.8399,0.05506 -3.37186,-1.167285 -5.12086,-1.549065 -3.13027,-1.041834 -6.28625,-2.069266 -9.15546,-3.717785 -1.42729,-0.746578 -2.94515,-1.260325 -4.18979,-2.323618 -1.75378,-1.46375 -4.08625,-2.11624 -5.74155,-3.717765 -4.2332,-2.975906 -8.12081,-6.280466 -11.94865,-9.759167 -3.15757,-2.790996 -6.20197,-5.8298088 -9.31065,-8.6747978 -0.98075,-1.101795 -1.60474,-2.527144 -2.79319,-3.407967 -1.90011,-1.77080431 -3.48451,-3.7592126 -4.96566,-5.8864848 -2.03191,-2.4196631 -4.24571,-4.8044943 -6.2071,-7.2806314 -1.74155,-2.26303 -3.42571,-4.56547 -4.96567,-6.970833 -1.02326,-1.374926 -1.73351,-2.891983 -2.32765,-4.492318 -0.29843,-1.539142 -0.76844,-2.938028 -0.93106,-4.492297 -0.39378,-2.232413 -1.56509,-4.138632 -2.0173,-6.3512 -0.20907,-1.520183 -0.32328,-3.143511 -1.08625,-4.492317 -0.53256,-1.412662 -0.33469,-3.011989 -0.46528,-4.492318 -0.12168,-1.49955 -0.67161,-2.9704 -0.62071,-4.492297 0.0141,-1.620605 -0.5419,-3.17683 -0.46528,-4.802135 -0.25523,-2.291045 0.0527,-4.670672 0,-6.970834 -0.39231,-1.559371 -0.15254,-3.167632 0.46528,-4.647215 0.48712,-1.544164 1.42916,-2.924999 1.86212,-4.492318 0.19613,-1.617862 0.79819,-3.088812 1.24142,-4.647216 0.5869,-2.936051 1.47868,-5.883095 2.0173,-8.829716 0.65304,-2.131164 1.21989,-4.299421 1.55177,-6.506098 0.10271,-1.464053 -0.86393,-2.587268 -1.86211,-3.562866 -1.10851,-1.33245 -2.44342,-2.461716 -3.87944,-3.407968 -1.27051,-0.649323 -2.77518,-0.441663 -4.18977,-0.309817 -2.12887,0.310805 -4.29573,0.445635 -6.36227,1.08435 -2.31699,0.387649 -4.64413,0.524758 -6.98299,0.774553 -1.71162,0.150259 -3.38996,0.75158 -5.12085,0.619614 -1.56188,-0.172446 -3.10058,0.628952 -4.6553,0.464473 -1.50801,-0.336077 -3.02766,-0.204716 -4.50016,-0.619614 -2.16383,-0.749119 -4.55358,-0.96985 -6.6726,-1.858903 -1.4335,-0.704585 -2.95958,-0.763721 -4.34497,-1.549065 -1.91179,-0.914021 -4.21975,-1.059421 -6.05191,-2.168699 -1.60532,-0.543738 -3.04558,-1.16307 -4.50015,-2.013798 -1.55007,-0.70146 -2.99146,-1.53717 -4.50014,-2.32362 -1.4087,-0.83232 -3.01203,-1.36 -4.34496,-2.3236 -1.49897,-0.73443 -2.85117,-1.74972 -4.34496,-2.47851 -2.06978,-1.25988 -4.04077,-2.78011 -5.89674,-4.3374 -2.19623,-2.26061 -4.64718,-4.22936 -6.8278,-6.50612 -1.1372,-1.21313 -2.12015,-2.50049 -3.25872,-3.71776 -0.90646,-1.41332 -2.17043,-2.60584 -3.25872,-3.8727 -1.48857,-1.75043 -3.62664,-2.94543 -4.8105,-4.95704 -0.67502,-1.15741 -1.90057,-1.72767 -2.48282,-2.94323 -0.72966,-1.32636 -1.63056,-2.46658 -2.48285,-3.71778 -0.79167,-1.26955 -1.29725,-2.7399 -1.70695,-4.1825 -0.59122,-1.8799 -0.83382,-3.84071 -1.39659,-5.73156 -0.83958,-3.11957 -1.45198,-6.26972 -2.01732,-9.44935 -0.46111,-2.0249 -0.19048,-4.18735 -0.77586,-6.1963 -0.55486,-1.47377 -0.2834,-2.96851 -0.62073,-4.4923 -0.47055,-1.42743 -0.0743,-2.94572 0.31037,-4.33741 0.6846,-2.51664 1.09805,-5.19576 2.17247,-7.59046 0.41831,-1.47705 0.96597,-2.92579 1.86213,-4.1825 0.96762,-1.73307 1.48505,-3.63712 2.638,-5.26684 0.48031,-1.46872 1.43964,-2.80925 2.1725,-4.1825 0.73997,-1.48642 1.5224,-2.98131 2.48283,-4.3374 0.62053,-1.90153 2.21646,-3.1508 3.25871,-4.80213 1.61534,-1.90034 3.37927,-3.64992 4.96569,-5.57667 0.80295,-1.41761 1.95188,-2.57393 2.94836,-3.87268 0.85057,-1.30747 1.51848,-2.76002 2.79319,-3.71777 1.19555,-0.97381 2.11376,-2.22685 3.41391,-3.09815 1.53287,-1.62819 3.69909,-2.48699 5.43119,-3.87268 1.25887,-0.98322 2.74555,-1.38901 4.03463,-2.32361 2.33266,-1.08098 4.46976,-2.40411 6.6726,-3.71777 1.48771,-0.83481 3.15036,-1.37801 4.65532,-2.16871 1.40995,-0.57977 2.6645,-1.41954 3.87944,-2.32361 1.28377,-0.95045 2.35123,-2.22556 3.41389,-3.40796 1.26355,-1.18537 2.22372,-2.63625 2.63802,-4.3374 0.47838,-1.50878 1.083,-3.05166 1.08625,-4.64722 0.19835,-1.59845 0.19149,-3.20582 0,-4.80212 -0.29031,-1.59374 -0.95487,-3.15834 -1.24144,-4.80213 -0.36278,-1.47769 -1.01094,-2.83057 -1.24141,-4.3374 -0.38026,-2.29893 -1.22223,-4.64292 -1.39659,-6.97084 0.0743,-1.64623 -0.11582,-3.33241 0.15517,-4.95703 0.33707,-1.58888 0.13721,-3.22356 0.62071,-4.80213 0.63215,-1.75528 1.66884,-3.43393 2.48284,-5.11194 0.82652,-1.43283 1.80813,-2.70703 2.79319,-4.02759 2.67727,-3.4548 5.49521,-6.78528 7.75887,-10.53369 0.94968,-1.40438 1.20766,-3.16665 2.0173,-4.64722 0.94188,-2.32078 1.7748,-4.62045 2.63801,-6.97083 0.0353,-1.68594 1.13175,-2.97903 1.70694,-4.49231 0.94319,-1.38798 1.20596,-3.18995 2.01732,-4.64722 1.4486,-2.99013 1.88423,-6.34015 3.41389,-9.29444 1.12132,-1.16589 1.56985,-2.77167 2.32767,-4.1825 0.97302,-2.16652 2.16525,-4.16926 3.10354,-6.3512 1.42546,-1.82905 2.70229,-3.93052 4.34497,-5.57665 1.28058,-1.02606 2.06571,-2.44754 3.41389,-3.40797 1.481,-1.08802 2.94937,-2.28946 4.81049,-2.63342 1.83531,-0.49472 3.73721,-1.12073 5.58637,-1.54907 1.65185,-0.25133 3.3005,-0.56402 4.96567,-0.61963 1.51088,-0.26818 2.98424,-0.59138 4.50015,-0.15466 1.47561,0.44563 2.83143,1.14973 4.34497,1.54907 1.85973,0.63435 3.71809,1.70086 5.58638,2.32361 1.80915,0.62419 3.28086,1.679 4.81049,2.78833 0.91939,0.86426 2.24136,1.26068 2.94836,2.32361 1.36806,0.69216 2.69554,1.47843 3.72427,2.63342 1.50385,1.25235 3.17066,2.5846 4.50013,4.02759 1.55763,1.30777 3.03806,2.55451 4.8105,3.56287 1.37241,0.70499 2.51393,1.77492 3.87944,2.47852 1.1561,1.2982 2.55801,2.34086 4.0346,3.25306 1.29712,0.90401 2.62395,1.62427 4.03461,2.32361 1.3155,0.96741 3.0804,0.6801 4.34496,-0.15467 1.34777,-1.27742 2.02818,-3.08164 2.638,-4.80212 0.59757,-1.55894 0.64231,-3.17479 0.93108,-4.80213 0.10432,-1.62273 -0.17877,-3.33926 -0.15497,-4.95703 0.12067,-1.83405 -0.44145,-3.58656 -0.31036,-5.42176 -0.27858,-2.95791 -0.10977,-5.86352 -0.15496,-8.82972 0.0715,-1.64895 0.40618,-3.33618 0,-4.95703 -0.36399,-1.62055 -0.0299,-3.23059 0.31035,-4.80212 0.36945,-2.91082 1.22368,-5.85754 2.0173,-8.67481 0.48664,-1.84035 1.55332,-3.42174 2.0173,-5.26685 0.53173,-1.6092 0.73065,-3.38016 1.70695,-4.80213 0.83166,-2.18288 2.01343,-4.13788 3.10355,-6.19629 0.83364,-1.19112 1.57724,-2.47842 2.32767,-3.71778 0.63684,-1.42677 1.52146,-2.74852 2.63799,-3.87268 1.0854,-1.26682 1.88334,-2.7572 2.94838,-4.02759 1.3664,-1.06388 2.35178,-2.50503 3.72425,-3.56286 1.19757,-0.89143 2.37946,-1.82612 3.72425,-2.47852 1.85711,-0.88582 3.7606,-1.48017 5.74156,-2.0138 1.59646,-0.1284 3.12062,-0.48182 4.65531,-0.92945 1.19569,-0.89459 2.97405,-0.59533 4.1898,-1.39415 z"
       id="path3098-5-4-1-6"
       style="fill:#ce341c;fill-opacity:1;stroke:none;display:inline" />
    <g
       transform="matrix(-1.7398287,0,0,1.7368021,942.59616,-449.46526)"
       id="g2906-8-22"
       style="display:inline">
      <path
         d="m 9.401775,166.48083 c 0,79.14568 -15.58012,106.85712 -6.6277,134.80151 4.26531,13.31388 22.516025,11.74447 25.662945,0 7.25294,-27.06834 -6.31524,-46.94263 -6.31524,-133.73221 0,-10.61685 15.19489,-25.42228 15.19489,-52.78077 0,-48.64202 -6.89191,-114.7689 -21.908475,-114.7689 -14.39571,0 -11.099556,85.24269 -11.099556,131.86204 0,20.02493 5.093136,25.23667 5.093136,34.61833 z"
         id="path3688-4-6"
         style="color:#000000;fill:url(#linearGradient3307);fill-opacity:1;fill-rule:nonzero;stroke:none;stroke-width:1;marker:none;visibility:visible;display:inline;overflow:visible" />
      <path
         d="m 34.77068,121.67722 c -2.20744,28.58055 -14.142153,34.29467 -20.152561,28.63782 -6.010407,-5.65685 -6.010407,-19.09188 -6.010407,-41.01219 0,-21.92031 -3.692132,-107.48023 6.363961,-107.48023 14.916447,0 24.309077,61.46102 19.799007,119.8546 z"
         id="path3743-9-1"
         style="opacity:0.3;color:#000000;fill:url(#linearGradient3309);fill-opacity:1;fill-rule:nonzero;stroke:none;stroke-width:1;marker:none;visibility:visible;display:inline;overflow:visible" />
      <path
         d="m 8.092024,59.97779 c 0.512867,-3.09073 3.141639,-5.51555 5.812241,-6.84467 1.771054,-1.35491 4.362411,-1.60026 5.545933,-3.71553 1.568791,-2.22859 2.799082,-4.68888 4.680982,-6.69468 1.40154,-2.5933 4.84704,-2.32611 6.25221,-4.85112 1.72241,-2.44881 0.88423,1.85057 1.66055,2.71788 -0.0149,2.0119 1.63306,4.15715 0.36375,6.06531 -2.30837,2.06843 -3.81893,4.8439 -4.60355,7.82395 -0.33998,2.51749 -2.32356,3.90564 -4.74187,3.45569 -1.949692,0.83076 -2.979766,2.88528 -4.562466,4.19972 -1.799198,2.43796 -4.504948,4.00287 -6.301081,6.42341 -1.375499,1.95026 -2.31316,4.25554 -3.859365,6.03938 C 7.825234,69.20931 7.957478,64.95952 8.092024,59.97779 z"
         id="path3780-3-0"
         style="opacity:0.3;color:#000000;fill:url(#linearGradient3311);fill-opacity:1;fill-rule:nonzero;stroke:none;stroke-width:1;marker:none;visibility:visible;display:inline;overflow:visible" />
      <path
         d="m 33.65624,51.818 c -2.11654,2.20548 -3.6974,6.24941 -5.32102,8.74117 -2.4928,1.05123 -3.87155,3.2234 -5.12281,5.53253 -1.765254,2.4836 -4.601591,3.63956 -6.98836,5.3984 -3.136132,1.42886 -3.993393,4.91925 -6.28834,7.1014 -2.803493,0.41929 -1.673341,18.94963 -0.902603,18.38499 2.845183,-1.71554 4.77906,-4.4281 6.96844,-6.80351 2.888338,-1.95533 5.459643,-4.41712 7.622603,-7.14767 2.44146,-4.38253 4.73013,-8.88475 6.69771,-13.50651 1.09229,-2.36391 0.0128,-4.99206 1.12951,-7.347 0.73291,-2.67808 2.94482,-4.58562 2.57012,-7.67764 -0.12315,-0.66368 -0.23643,-1.7569 -0.36525,-2.67616 z"
         id="path3790-6-6"
         style="opacity:0.3;color:#000000;fill:url(#linearGradient3313);fill-opacity:1;fill-rule:nonzero;stroke:none;stroke-width:1;marker:none;visibility:visible;display:inline;overflow:visible" />
      <path
         d="m 4.897234,298.37345 c 1.546895,7.00601 8.110993,11.9289 14.884672,8.74162 7.511554,-3.53449 8.587014,-15.23602 8.639134,-21.57676 0.0924,-11.24267 -1.08126,-19.55103 -2.42916,-30.56331 -0.41872,-3.42089 -1.09867,-9.78773 -1.78561,-12.92237 -0.0206,8.87129 1.35848,17.46979 -0.29165,26.29117 -2.4483,8.28959 0.27533,23.44127 -7.621726,28.99423 -3.916863,2.75421 -10.959303,-2.69782 -11.39566,1.03542 z"
         id="path3868-1-1"
         style="opacity:0.3;color:#000000;fill:url(#linearGradient3315);fill-opacity:1;fill-rule:nonzero;stroke:none;stroke-width:1;marker:none;visibility:visible;display:inline;overflow:visible" />
    </g>
    <g
       transform="matrix(1.7398287,0,0,2.1521563,-58.469589,-581.26787)"
       id="g2900-8-5"
       style="display:inline">
      <path
         d="m 85.76931,167.15898 c 0,79.14569 -15.28812,101.80224 -6.6277,134.12336 3.6184,13.50405 22.51603,11.74447 25.66295,0 7.99219,-29.82727 -6.31524,-57.27894 -6.31524,-134.83002 0,-10.61686 10.20001,-10.89112 15.72002,-24.58892 4.92871,-12.23054 -2.02916,-78.09787 -4.27111,-78.09787 -2.55821,0 -1.30597,57.04007 -6.15556,57.04007 -4.89262,0 -2.41828,-56.26649 -5.5126,-57.04007 -3.09433,-0.77358 -0.82481,57.04007 -6.54964,57.04007 -5.78256,0 -2.02421,-57.04007 -5.11854,-57.04007 -3.09431,0 -2.22373,57.04007 -6.94369,57.04007 -5.19611,0 -2.40372,-57.04007 -4.72447,-57.04007 -3.9445,0 -8.56444,61.94674 -6.11111,75.0312 2.45334,13.08446 16.94669,15.56395 16.94669,28.36225 z"
         id="path3642-4-9"
         style="color:#000000;fill:url(#linearGradient3317);fill-opacity:1;fill-rule:nonzero;stroke:none;stroke-width:1;marker:none;visibility:visible;display:inline;overflow:visible" />
      <path
         d="m 111.28086,141.21729 c -1.06136,3.81955 -4.43484,6.12179 -6.72144,9.05262 -2.92849,2.52741 -5.88391,5.71638 -10.03037,5.49939 -3.83179,0.0201 -7.41021,-1.70513 -11.02542,-2.86528 -3.71415,-2.09643 -6.34067,-5.88751 -7.95876,-9.87869 0.21146,-2.98803 3.06597,2.69083 5.33636,1.64588 2.40854,-0.59532 5.33093,0.92379 7.34002,-1.21934 1.56272,-2.74268 5.314,1.82055 6.39152,-2.12838 1.77759,-2.23901 5.13664,-1.52094 6.9369,-3.68918 2.69533,-2.35453 4.72198,-5.86403 8.40263,-6.82307 1.715,-0.90748 3.90895,-5.32797 3.58674,-1.08382 0.81338,3.57648 -1.06726,8.08387 -2.25818,11.48987 z"
         id="path3800-6-4"
         style="opacity:0.3;color:#000000;fill:url(#linearGradient3319);fill-opacity:1;fill-rule:nonzero;stroke:none;stroke-width:1;marker:none;visibility:visible;display:inline;overflow:visible" />
      <path
         d="m 73.973369,65.500099 a 0.47948589,0.93398948 13.552467 0 1 -0.93227,-0.224721 0.47948589,0.93398948 13.552467 1 1 0.93227,0.224721 z"
         id="path3811-8-9"
         style="opacity:0.3;color:#000000;fill:#ffffff;fill-opacity:0.77690501;fill-rule:nonzero;stroke:none;stroke-width:1;marker:none;visibility:visible;display:inline;overflow:visible" />
      <path
         d="m 80.89723,298.37345 c 1.5469,7.00601 8.111,11.9289 14.88468,8.74162 7.51155,-3.53449 8.58701,-15.23602 8.63913,-21.57676 0.0924,-11.24267 -1.08126,-19.55103 -2.42916,-30.56331 -0.41872,-3.42089 -1.09867,-9.78773 -1.78561,-12.92237 -0.0206,8.87129 1.35848,17.46979 -0.29165,26.29117 -2.4483,8.28959 0.27533,23.44127 -7.62173,28.99423 -3.91686,2.75421 -10.9593,-2.69782 -11.39566,1.03542 z"
         id="path3882-0-09"
         style="opacity:0.3;color:#000000;fill:url(#linearGradient3321);fill-opacity:1;fill-rule:nonzero;stroke:none;stroke-width:1;marker:none;visibility:visible;display:inline;overflow:visible" />
    </g>
    <g
       transform="matrix(4.9656718,0,0,4.9570336,-3.198072,-853.39732)"
       id="g4175">
      <path
         d="m 21.43741,207.40382 c 0.173843,1.69505 0.260768,3.58565 0.260774,5.67182 -6e-6,1.21696 -0.05433,3.3792 -0.162984,6.48674 -0.108661,2.73813 -0.141258,4.90037 -0.09779,6.48673 l 0.06519,3.48785 c -0.239048,0.19558 -0.434628,0.48895 -0.58674,0.88011 -0.217316,0.54327 -0.347703,0.84751 -0.39116,0.9127 l -0.814917,-0.58674 c -0.08693,0.0435 -0.13039,0.21731 -0.130387,0.52155 -0.0652,-0.17385 -0.13039,-0.35856 -0.19558,-0.55414 -0.04347,-0.19558 -0.173852,-0.29337 -0.39116,-0.29337 -0.108658,0.10865 -0.336835,0.16298 -0.68453,0.16298 -0.347699,-0.0217 -0.586741,-0.0109 -0.717126,0.0326 l -0.456353,-0.52155 -0.260774,-7.88839 c 0.304234,-1.80367 0.456352,-3.94419 0.456354,-6.42155 -2e-6,-0.80403 -0.02173,-2.03184 -0.06519,-3.68342 -0.04346,-1.67327 -0.06519,-2.93368 -0.06519,-3.78121 0.04346,-0.21729 -0.02173,-0.54326 -0.19558,-0.9779 -0.152119,-0.4346 -0.228178,-0.72797 -0.228177,-0.88011 -1e-6,-0.26075 0.11952,-0.45633 0.358564,-0.58674 0.152116,0.087 0.293368,0.13041 0.423756,0.13038 0.217309,3e-5 0.499813,-0.10863 0.847513,-0.32596 0.369426,-0.21729 0.641065,-0.32594 0.814917,-0.32597 0.173845,3e-5 0.336829,0.0544 0.48895,0.16298 0.195576,0.28253 0.467215,0.68456 0.814917,1.20608 0.02173,-0.15209 -0.0326,-0.38027 -0.162984,-0.68453 -0.130391,-0.32594 -0.195584,-0.58671 -0.19558,-0.78232 0.434618,0.087 0.727987,0.39119 0.88011,0.91271 0.130382,0.41291 0.260768,0.8258 0.39116,1.23867 m 1.336464,0.29337 c -0.08693,-0.0869 -0.14126,-0.26075 -0.162984,-0.52155 -7e-6,-0.26074 -0.07606,-0.45632 -0.228176,-0.58674 -0.152125,-0.15209 -0.228183,-0.39113 -0.228177,-0.71712 0.369422,0.43465 0.575867,1.04312 0.619337,1.82541 m -6.193367,0.61934 c 0.152117,3.99854 0.228176,6.628 0.228177,7.88839 -10e-7,2.82506 -0.162984,5.21548 -0.48895,7.17127 0.173848,0.93444 0.271638,2.01013 0.29337,3.22707 0.04346,1.91234 0.06519,2.98803 0.06519,3.22707 -0.130387,0.21731 -0.315101,0.52154 -0.554143,0.9127 0,-0.84751 -0.06519,-2.2709 -0.19558,-4.27016 -0.108656,-1.82541 -0.162983,-3.25966 -0.162983,-4.30276 0,-1.71675 0.119521,-3.25965 0.358563,-4.62873 l -0.06519,-4.56353 -0.06519,0 c 0.130387,-0.28248 0.173849,-0.63018 0.130387,-1.04309 -0.06519,-0.45634 -0.06519,-0.80403 0,-1.0431 l 0,-2.57513 0.19558,0 c 0.04346,-0.1521 0.02173,-0.34768 -0.06519,-0.58674 -0.130387,-0.34768 -0.195581,-0.54326 -0.19558,-0.58674 l 0.521546,1.17348 m 6.388947,7.07347 c -0.217319,-0.4346 -0.33684,-0.94528 -0.358564,-1.53204 -7e-6,-0.56499 -7e-6,-1.13 0,-1.69503 l 0.260774,-0.26077 c 0.06519,0.39118 0.09778,0.94532 0.09779,1.66243 -8e-6,1.21696 -8e-6,1.82543 0,1.82541 m -0.260774,4.33536 -0.09779,-0.84751 0.162984,0.39116 -0.06519,0.45635 m -0.19558,4.36795 -0.19558,-0.45635 0.19558,0.26077 0,0.19558 m 0.09779,0.52155 0.130387,0 0,-0.13039 -0.130387,0 0,0.13039 m 0.09779,0.55414 c 0.06519,0.23905 0.08692,0.61935 0.06519,1.14089 l -0.06519,-0.61934 -0.19558,0 0,-0.52155 0.19558,0 m -0.09779,1.59724 0,-0.35856 0.162984,0.35856 -0.162984,0 m 0.09779,1.33646 0,0"
         id="path3349"
         style="font-size:32.59666443px;font-style:normal;font-variant:normal;font-weight:bold;font-stretch:normal;text-align:start;line-height:125%;letter-spacing:0px;word-spacing:0px;writing-mode:lr-tb;text-anchor:start;fill:#434f6d;fill-opacity:1;stroke:none;font-family:appo paint;-inkscape-font-specification:appo paint" />
      <path
         d="m 39.574908,205.35023 c 0.02171,-0.0652 0.06518,0.0109 0.130386,0.22818 -0.06521,0.0435 -0.162999,0.11954 -0.29337,0.22817 0.04345,0.21734 0.152102,0.326 0.325967,0.32597 0.06518,3e-5 0.152101,-0.0108 0.260773,-0.0326 0.108639,-0.0434 0.184698,-0.0652 0.228177,-0.0652 0.152101,3e-5 0.217294,0.13041 0.19558,0.39116 l 0.162983,0.0978 c -0.02175,0.19561 -0.152135,0.32599 -0.39116,0.39116 -0.304252,0.0652 -0.488966,0.14128 -0.554143,0.22818 0.02172,0.0435 0.09777,0.0652 0.228177,0.0652 -0.04348,0.17387 0.01085,0.42378 0.162983,0.74972 l 0.06519,-0.13038 c -0.152134,0.0435 -0.228193,0.11954 -0.228176,0.22817 -1.7e-5,0.0435 0.01085,0.11955 0.0326,0.22818 0.04345,0.087 0.06518,0.15214 0.06519,0.19558 -1.7e-5,0.10868 -0.05434,0.1956 -0.162984,0.26077 l -0.554143,0.22818 0.456353,0.55414 -0.619336,0.39116 0.09779,0.0652 c -0.173865,-0.0652 -0.28252,-0.0326 -0.325967,0.0978 0.06518,0.0869 0.325951,0.13041 0.78232,0.13038 -0.717142,-0.0652 -1.390806,0.0978 -2.020993,0.48895 l 0.06519,0.0652 c -0.10867,0.10867 -0.304249,0.18473 -0.58674,0.22817 -0.32598,0.0435 -0.586753,2e-5 -0.78232,-0.13038 -0.412903,0.0435 -1.010508,0.17387 -1.792816,0.39116 l 0.228176,0.22817 c -0.195591,0.0652 -0.260784,0.21734 -0.19558,0.45636 0.08691,0.23906 0.07605,0.40204 -0.0326,0.48895 -1.2e-5,2e-5 -0.05434,0.0217 -0.162984,0.0652 l 0.09779,0.0652 c 0.02172,0.21733 0.03259,0.45638 0.0326,0.71713 -1.1e-5,0.4781 -0.0652,1.23869 -0.19558,2.28177 -0.108666,1.04311 -0.162994,1.83629 -0.162983,2.37955 -1.1e-5,0.8258 0.108644,1.56466 0.325966,2.21658 0.08691,0.93445 0.09778,2.44476 0.0326,4.53093 -0.0652,2.08619 -0.05434,3.59651 0.0326,4.53094 -0.08694,-0.21731 -0.184726,-0.43462 -0.29337,-0.65193 -0.108667,-0.23904 -0.249919,-0.40203 -0.423757,-0.48895 -0.130397,0.19558 -0.173859,0.45635 -0.130387,0.78232 0.08691,0.54328 0.130377,0.81491 0.130387,0.81491 l -0.130387,0 c -0.08693,0.0652 -0.108665,0.19558 -0.06519,0.39116 0.06518,0.19558 -1e-5,0.32597 -0.19558,0.39116 0.08691,0.0869 0.119511,0.14126 0.09779,0.16299 -0.173859,0 -0.29338,-0.14126 -0.358563,-0.42376 -0.04347,-0.2825 -0.07607,-0.42376 -0.09779,-0.42376 -0.04347,0.0217 -0.0978,0.11953 -0.162984,0.29337 -9e-6,-0.0869 -0.05434,-0.17384 -0.162983,-0.26077 -0.108665,-0.10865 -0.162992,-0.17385 -0.162983,-0.19558 -0.08693,0 -0.141262,0.14125 -0.162984,0.42376 -0.02174,0.13038 -0.0978,0.19558 -0.228176,0.19558 l 0.162983,0.16298 c -0.0652,0.0217 -0.11953,0.0435 -0.162983,0.0652 -0.04347,0 -0.108664,-0.10865 -0.19558,-0.32596 -0.08693,-0.21731 -0.206454,-0.29337 -0.358563,-0.22818 -0.282513,0.32597 -0.423765,0.57587 -0.423757,0.74972 -8e-6,0.13039 0.06518,0.27164 0.19558,0.42376 -0.02174,0.0435 -8e-6,0.0978 0.06519,0.16298 l -0.06519,0.0978 c -0.173857,-0.13038 -0.304243,-0.44548 -0.39116,-0.9453 -0.08693,-0.43462 -0.282512,-0.67366 -0.58674,-0.71713 -0.108663,0.0869 -0.16299,0.20645 -0.162983,0.35857 -7e-6,0.0652 0.03259,0.20644 0.09779,0.42375 0.04345,0.17385 0.04345,0.30424 0,0.39116 -0.0652,-0.21731 -0.152125,-0.44548 -0.260774,-0.68453 -0.108662,-0.26077 -0.228183,-0.39116 -0.358563,-0.39116 -0.434628,-0.95616 -0.619342,-2.27089 -0.554143,-3.94419 0.08692,-2.12964 0.08692,-3.47697 0,-4.04199 -0.217317,-0.80404 -0.325972,-1.69502 -0.325967,-2.67293 -5e-6,-0.69538 0.07605,-1.71674 0.228177,-3.06408 0.152112,-1.34731 0.239036,-2.34694 0.260773,-2.9989 l 0.130387,-0.16298 -0.06519,-1.17348 c -0.28251,0.10868 -0.956174,0.24993 -2.020993,0.42376 -0.847516,0.15213 -1.488583,0.38031 -1.923203,0.68453 l 1.140883,-0.55415 c -0.152121,-0.0869 -0.412894,-0.0978 -0.78232,-0.0326 -0.499817,0.0869 -0.804052,0.11954 -0.912706,0.0978 l -1.56464,-0.0652 c 0.108655,0.0435 0.271638,-0.0326 0.48895,-0.22817 -1e-6,-0.0434 -0.0326,-0.0978 -0.09779,-0.16299 0.60847,-0.0869 1.455982,-0.27161 2.54254,-0.55414 -0.673667,-0.10863 -1.618969,-0.21729 -2.83591,-0.32597 0.04346,-0.0217 0.119521,-0.1195 0.228176,-0.29337 l -0.162983,-0.39116 c 0.08692,0.0218 0.162983,0.0326 0.228177,0.0326 0.06519,2e-5 0.152117,-0.0652 0.260773,-0.19558 0.108655,-0.1521 0.260772,-0.20642 0.456353,-0.16298 -0.06519,-0.0434 -0.173849,-0.1195 -0.325966,-0.22818 0.06519,2e-5 0.09779,-0.0217 0.09779,-0.0652 -0.217312,-0.0652 -0.347699,-0.19556 -0.39116,-0.39116 0.239041,-0.0652 0.423755,-0.23902 0.554143,-0.52155 0.152117,-0.28248 0.380293,-0.402 0.68453,-0.35856 l 0.228177,-0.29337 c -0.08693,-0.0652 -0.173851,-0.0978 -0.260774,-0.0978 -0.08693,2e-5 -0.228178,0.0326 -0.423756,0.0978 -0.195581,0.0652 -0.358565,0.087 -0.48895,0.0652 l 0.09779,0 c -0.08693,-0.17382 -0.130388,-0.32594 -0.130387,-0.45635 -1e-6,-0.21729 0.21731,-0.36941 0.651933,-0.45636 0.543276,-0.10863 0.858377,-0.20642 0.945304,-0.29337 1.238669,-0.26074 2.857635,-0.51065 4.856903,-0.74972 3.107538,-0.34767 4.769966,-0.54325 4.987289,-0.58674 0.43461,-0.26075 0.923559,-0.39113 1.46685,-0.39116 0.217297,3e-5 0.532398,0.0218 0.945303,0.0652 0.434608,0.0435 0.771439,0.0652 1.010497,0.0652 0.217295,2e-5 0.423741,-0.0108 0.619337,-0.0326 m 0.847513,4.79171 0,0 m -0.619337,0.0652 0,0 m -0.619336,0.71713 -0.0326,0.0652 -1.17348,-0.0652 0.0326,-0.0652 0.912706,0.0652 0.260774,0 m -10.235353,0.78232 0.09779,0 0,-0.13039 -0.09779,0 0,0.13039 m -0.39116,0.0652 0.09779,0 0,-0.0978 -0.09779,0 0,0.0978 m -0.48895,0.0978 0,0 m -0.228177,0.0652 0.130387,0 0,-0.0978 -0.130387,0 0,0.0978 m 1.010497,0.0978 0.130387,0 0,-0.13039 -0.130387,0 0,0.13039 m -0.68453,0.13038 0,0 m -0.554143,0.16299 0.09779,0 0,-0.0978 -0.09779,0 0,0.0978"
         id="path3351"
         style="font-size:32.59666443px;font-style:normal;font-variant:normal;font-weight:bold;font-stretch:normal;text-align:start;line-height:125%;letter-spacing:0px;word-spacing:0px;writing-mode:lr-tb;text-anchor:start;fill:#434f6d;fill-opacity:1;stroke:none;font-family:appo paint;-inkscape-font-specification:appo paint" />
      <path
         d="m 48.949505,207.69719 0,0 m 14.961869,20.95966 -0.162983,0 c -0.304258,-0.0217 -0.456375,0.10865 -0.456354,0.39116 -2.1e-5,0.13039 0.108634,0.23904 0.325967,0.32596 -0.08695,0.10866 -0.195602,0.16299 -0.325967,0.16299 -0.108677,0 -0.27166,-0.0652 -0.48895,-0.19558 -0.195601,-0.13039 -0.358584,-0.19558 -0.48895,-0.19558 -0.1956,0 -0.39118,0.19558 -0.58674,0.58674 l 0.0326,0.0652 -0.130387,0 c -0.06521,0 -0.163003,0.0326 -0.29337,0.0978 -0.108675,0.0435 -0.195599,0.0652 -0.260773,0.0652 -0.239061,0 -0.90186,-0.90184 -1.988396,-2.70552 -0.630219,-1.10828 -1.260421,-2.21657 -1.890607,-3.32486 l -0.260773,0 c 0.02172,0.30424 0.184699,0.73886 0.48895,1.30387 -0.173865,-0.45635 -0.445503,-0.89097 -0.814917,-1.30387 0.195565,0.7606 0.641052,1.69503 1.336463,2.80331 0.825765,1.30387 1.336446,2.20571 1.532044,2.70553 -0.890993,-1.36906 -1.466867,-2.26003 -1.727624,-2.67293 -0.630217,-1.02136 -1.140898,-1.96666 -1.532043,-2.83591 -0.369443,0.0652 -1.879754,0.0978 -4.530936,0.0978 -1.825422,10e-6 -3.042363,0.15213 -3.650827,0.45635 -0.152124,0.0652 -0.239048,0.18472 -0.260773,0.35857 -0.02174,0.17385 -0.04347,0.28251 -0.06519,0.32596 l 0.09779,0.0652 c -0.195586,0.54328 -0.499822,1.3256 -0.912707,2.34696 l -1.140883,2.67292 c -0.260777,0 -0.412895,0.13039 -0.456353,0.39116 -0.10866,0.45636 -0.162987,0.68453 -0.162984,0.68453 -0.173852,-0.0652 -0.358566,-0.2825 -0.554143,-0.65193 -0.173852,-0.36943 -0.3477,-0.55414 -0.521547,-0.55414 -0.130389,0 -0.456355,0.17385 -0.9779,0.52154 -0.08693,-0.15211 -0.130388,-0.3151 -0.130386,-0.48895 -2e-6,-0.15211 0.02173,-0.36942 0.06519,-0.65193 0.06519,-0.2825 0.09779,-0.48895 0.09779,-0.61934 -10e-7,-0.21731 -0.04346,-0.39115 -0.130387,-0.52154 -0.260774,0.45635 -0.554144,1.17348 -0.88011,2.15138 0.08692,-0.43462 0.380294,-1.36906 0.88011,-2.80332 0.391159,-1.15174 0.619335,-2.09704 0.68453,-2.83591 0.217309,-0.30423 0.325965,-0.63019 0.325967,-0.9779 -2e-6,-0.15211 -0.0326,-0.28249 -0.09779,-0.39116 -0.260775,0.91272 -0.521548,1.82542 -0.78232,2.73812 -0.304237,1.06483 -0.619337,1.94494 -0.945303,2.64033 l -0.0326,-0.26077 c -0.02173,-0.34769 0.119521,-0.9779 0.423757,-1.89061 0.412889,-1.21693 0.641066,-1.8906 0.68453,-2.02099 0.217309,-0.93443 0.43462,-1.858 0.651933,-2.77072 0.260771,-1.08654 0.543275,-1.98838 0.847513,-2.70552 0.152115,-0.26076 0.380291,-0.66279 0.68453,-1.20608 0.08692,-0.28249 0.228173,-0.69538 0.423757,-1.23867 0.304231,-0.7823 0.738853,-1.96665 1.303866,-3.55304 l 1.695027,-5.31325 c -0.325974,1.456 -0.890982,3.62911 -1.695027,6.51933 l 0.09779,0.0978 c 0.630196,-1.52116 1.162608,-3.11839 1.597237,-4.79171 0.08692,-0.47806 0.239035,-1.16259 0.456353,-2.05359 0.173841,-0.60845 0.630194,-0.98874 1.36906,-1.14088 l 0.162984,-0.55415 c -0.02174,0.2608 0.07605,0.41292 0.29337,0.45636 0.06518,-0.0869 0.369418,-0.29335 0.912706,-0.61934 0.08691,0.0435 0.162973,0.0652 0.228177,0.0652 0.195569,3e-5 0.304224,-0.10863 0.325966,-0.32596 0.08691,-0.10863 0.260762,-0.21729 0.521547,-0.32597 l 0.130387,0.0652 c 0.108643,0.69543 0.499803,1.68419 1.17348,2.9663 0.67365,1.28216 1.043079,2.30352 1.108286,3.06409 0.304221,0.52156 0.456339,0.86926 0.456354,1.04309 -1.5e-5,0.10868 -0.02175,0.20647 -0.06519,0.29337 0.195566,0.17387 0.325952,0.42378 0.39116,0.74972 0.108641,0.41291 0.1847,0.67369 0.228177,0.78232 1.021346,2.1514 2.042707,4.31364 3.064086,6.48674 1.238654,2.54255 2.368671,4.6396 3.390053,6.29116 0.195559,0.36943 0.499794,0.92357 0.912707,1.66243 m -5.704416,-1.9558 -0.521547,-1.0105 0.521547,1.0105 m 2.05359,3.65082 -1.923204,-3.42265 c 0.543261,0.78233 0.901824,1.3256 1.07569,1.62984 0.369411,0.65193 0.651915,1.24954 0.847514,1.79281 m -7.8232,-16.88507 -0.06519,-0.39116 0.06519,0.39116 m -0.260773,-0.0652 0,-0.13039 -0.130387,0 0,0.13039 0.130387,0 m 0.0326,0.52154 0,0 m 0.228177,0.78232 c -1.1e-5,-0.10863 -0.02174,-0.23902 -0.06519,-0.39116 l 0.06519,0.39116 m 2.575137,4.82431 -2.575137,-5.9 c 0.304224,1.02138 0.456342,1.58639 0.456353,1.69503 l -0.0326,0.26077 c -0.0652,-0.13037 -0.152129,-0.33681 -0.260774,-0.61933 -1.1e-5,0.0435 0.651922,1.54292 1.9558,4.49834 -0.02174,-0.10865 0.01085,-0.18471 0.09779,-0.22818 0.08691,0.1304 0.130374,0.20646 0.130387,0.22818 l 0.09779,-0.0978 0.130387,0.16298 m -0.912707,0.0652 c -0.586752,-1.32558 -1.423399,-3.31398 -2.509943,-5.96519 l -0.130387,0.9779 -0.09779,-0.16298 c -0.456362,1.21696 -1.140892,3.0641 -2.05359,5.54143 2.042715,-0.30422 3.411773,-0.45634 4.10718,-0.45635 l 0.09779,-0.0652 0.06519,0.13038 0.521547,0 m 1.36906,0.91271 -0.325967,-0.58674 -0.06519,0 c -0.06521,1e-5 -0.0978,0.0109 -0.09779,0.0326 -1.4e-5,0.0217 0.01085,0.0435 0.0326,0.0652 -1.4e-5,0.0217 -0.04348,0.0435 -0.130387,0.0652 l -0.09779,-0.16298 c 0.217298,0.4129 0.423743,0.61935 0.619337,0.61934 l 0.06519,-0.0326 m 1.336463,2.77072 0,-0.13039 -0.130387,0 0,0.13039 0.130387,0 m -0.456353,0.0652 0,-0.13039 -0.130387,0 0,0.13039 0.130387,0 m -0.88011,0 0,0 m -8.31215,-8.8011 -0.130386,0.58674 0.130386,-0.58674 m 7.399443,5.96519 c -0.08694,-0.41288 -0.423769,-0.61932 -1.010496,-0.61934 -0.15213,2e-5 -0.369441,0.0109 -0.651934,0.0326 -0.260784,0.0217 -0.467229,0.0326 -0.619336,0.0326 -0.152129,1e-5 -0.282515,-0.0109 -0.39116,-0.0326 -0.543288,0.0652 -1.086565,0.1304 -1.629833,0.19558 -0.695404,0.0869 -1.130026,0.32598 -1.303867,0.71713 0.391152,-0.0217 1.162606,-0.0869 2.314363,-0.19558 0.977889,-0.0869 1.760209,-0.13038 2.34696,-0.13039 0.304223,1e-5 0.619324,1e-5 0.945303,0 m 0.749724,2.9011 c -0.347712,1e-5 -0.880123,-0.0109 -1.597237,-0.0326 -0.695407,0 -1.216953,0 -1.56464,0 -1.477724,0 -2.835917,0.14126 -4.074583,0.42375 1.086548,-0.2173 3.498699,-0.34769 7.23646,-0.39116 m -10.430933,-3.25966 -0.06519,0.22817 0.06519,-0.22817 m -0.130387,0.52154 c -0.304238,0.58675 -0.554146,1.53206 -0.749723,2.83591 0.130384,-0.65192 0.380292,-1.59722 0.749723,-2.83591 m 9.029276,-3.03149 -0.814916,-2.05359 c 0.195568,0.45637 0.467207,1.1409 0.814916,2.05359 m 0.09779,0.16299 0,0 m 0.68453,1.36906 -0.162983,-0.32597 0.09779,0.0978 0.06519,0.22818"
         id="path3353"
         style="font-size:32.59666443px;font-style:normal;font-variant:normal;font-weight:bold;font-stretch:normal;text-align:start;line-height:125%;letter-spacing:0px;word-spacing:0px;writing-mode:lr-tb;text-anchor:start;fill:#434f6d;fill-opacity:1;stroke:none;font-family:appo paint;-inkscape-font-specification:appo paint" />
      <path
         d="m 69.979955,205.87178 c -0.04347,1.02138 0.05432,2.48823 0.29337,4.40055 0.260768,2.06447 0.391154,3.55305 0.39116,4.46574 -6e-6,1.23869 -0.141258,2.36871 -0.423756,3.39005 l 0.06519,6.29116 c 0.173843,0.0869 0.380288,0.13039 0.619337,0.13039 0.152111,0 0.423749,-0.0326 0.814916,-0.0978 0.304228,-0.0435 0.510673,-0.0543 0.619337,-0.0326 -0.325974,0.19559 -0.499823,0.29338 -0.521547,0.29337 -0.173856,0.13039 -0.293377,0.28251 -0.358563,0.45635 0.412884,0.0435 0.956161,-0.0109 1.629833,-0.16298 0.782311,-0.17384 1.314722,-0.27163 1.597237,-0.29337 0.586729,1e-5 1.369048,0.0435 2.34696,0.13039 1.086541,0.0869 1.857995,0.13039 2.314363,0.13038 0.521531,1e-5 0.999615,-0.0326 1.434253,-0.0978 0.13037,0.0217 0.217294,0.17386 0.260773,0.45636 0.06518,0.26078 0.152101,0.39116 0.260774,0.39116 0.06518,0 0.162966,-0.0435 0.29337,-0.13039 0.02171,0.3477 0.184697,0.728 0.48895,1.14088 0.04344,0.0217 -1.8e-5,0.0543 -0.130387,0.0978 -0.108673,0.0435 -0.163001,0.10866 -0.162983,0.19558 -1.8e-5,0.0652 0.02171,0.11953 0.06519,0.16299 -0.23906,0 -0.532429,0.0869 -0.88011,0.26077 l -0.130387,0.0652 c 0.152101,0.0869 0.217295,0.22818 0.19558,0.42376 -0.04348,0.30424 -0.06521,0.45636 -0.06519,0.45635 -0.325983,0.47809 -0.858395,0.76059 -1.597237,0.84752 -0.651947,0.0652 -1.293014,0.14125 -1.923203,0.22817 -1.282147,-0.15211 -2.194853,-0.22817 -2.73812,-0.22817 -1.021371,0 -1.847152,0.15212 -2.477346,0.45635 0.456345,-0.0652 0.977891,-0.0978 1.56464,-0.0978 0.478074,0 1.1952,0.0326 2.15138,0.0978 0.956156,0.0652 1.662416,0.0978 2.118783,0.0978 0.543263,0 1.032213,-0.0326 1.46685,-0.0978 -0.06521,0.13039 -0.0978,0.23904 -0.09779,0.32597 -1.5e-5,0.13038 0.162968,0.20644 0.48895,0.22817 0.347682,0 0.543261,0.0869 0.58674,0.26078 l -0.358564,-0.26078 c -1.912351,0.0217 -3.824687,0.0326 -5.737013,0.0326 -2.173118,0.0869 -4.041992,0.33683 -5.606626,0.74972 -1.10829,0.0652 -2.238306,-0.0217 -3.390053,-0.26077 l 0.130387,0 0,0.26077 -0.130387,0 c 0.04346,-0.10865 0.02173,-0.26077 -0.06519,-0.45635 l -0.358564,0.29337 c 0.02173,-0.39116 -0.02173,-0.9779 -0.130386,-1.76022 -0.108656,-0.80405 -0.162984,-1.37992 -0.162984,-1.72762 0,-0.23904 0.01087,-0.45635 0.0326,-0.65194 0,-0.30423 -0.06519,-0.69539 -0.19558,-1.17348 -0.108656,-0.49981 -0.162983,-0.8801 -0.162983,-1.14088 0,-0.30423 0.05433,-0.61933 0.162983,-0.9453 -0.08692,-0.0652 -0.09779,-0.17384 -0.0326,-0.32597 0.08693,-0.17384 0.07606,-0.29336 -0.0326,-0.35856 l 0.260773,0.61933 c 0.02173,-0.36942 0.0326,-0.77144 0.0326,-1.20607 -10e-7,-0.6302 -0.05433,-1.59723 -0.162984,-2.90111 -0.08692,-1.32558 -0.130386,-2.34694 -0.130386,-3.06408 0,-0.54326 0.0326,-1.45597 0.09779,-2.73812 0.06519,-1.21693 0.09779,-2.15136 0.09779,-2.80332 -1e-6,-1.0648 -0.06519,-1.99924 -0.19558,-2.80331 0.04346,-0.0434 0.07606,-0.18469 0.09779,-0.42376 0.04346,-0.17382 0.108655,-0.26074 0.19558,-0.26077 0.04346,3e-5 0.09779,0.0218 0.162983,0.0652 0.06519,0.17388 0.09779,0.52157 0.09779,1.0431 -10e-7,0.49984 0.02173,0.8584 0.06519,1.07569 l 0.456354,3.25966 c 0.173847,-0.47806 0.260772,-1.04307 0.260773,-1.69502 -10e-7,-0.34768 -0.04346,-0.86923 -0.130387,-1.56464 -0.06519,-0.71711 -0.09779,-1.24952 -0.09779,-1.59724 -10e-7,-0.45633 0.05433,-0.86922 0.162984,-1.23867 0.04346,0.0652 0.08692,0.0978 0.130386,0.0978 0.04346,2e-5 0.108654,-0.0434 0.19558,-0.13039 0.108654,-0.0869 0.195578,-0.13036 0.260774,-0.13039 l 0,-0.16298 0.162983,0.16298 c 0.23904,-0.0652 0.488947,-0.11949 0.749723,-0.16298 0.26077,-0.0652 0.488947,-0.18469 0.68453,-0.35856 0.173845,0.0435 0.402022,0.16301 0.68453,0.35856 0.391155,-0.65191 0.749718,-0.97787 1.07569,-0.9779 0.173843,3e-5 0.260768,0.20647 0.260773,0.61934 m 0.945304,0.0652 0.130386,0 0,0.45635 -0.130386,0 0,-0.45635 m 0.130386,0.61934 0,0 m 0.325967,1.33646 c -0.02174,-0.10863 -0.08693,-0.19556 -0.19558,-0.26077 -0.108662,-0.0652 -0.16299,-0.10863 -0.162983,-0.13039 -7e-6,-0.0652 0.05432,-0.14123 0.162983,-0.22818 l 0.19558,0.61934 m -0.19558,1.49945 0.09779,-0.35857 0.09779,0.29337 -0.19558,0.0652 m 0.19558,1.30386 -0.09779,-0.48895 0.09779,0.26078 0,0.22817 m 0,0.19558 0.09779,0 0,0.26078 -0.09779,0 0,-0.26078 m 0.554143,4.13978 c 0.02172,-0.86923 -0.07607,-1.80366 -0.29337,-2.80331 0.369422,0.15213 0.554136,0.45637 0.554144,0.9127 -8e-6,0.1956 -0.05434,0.52157 -0.162984,0.9779 -0.08693,0.43464 -0.119528,0.73888 -0.09779,0.91271 m -0.554143,-0.9779 -0.19558,-0.78232 0.19558,0.32597 0,0.45635 m -5.997786,-0.52155 -0.06519,1.82542 0.06519,-1.82542 m 5.737013,1.20608 0,0 m 0.68453,0.45635 0.130386,0 0,0.29337 -0.130386,0 0,-0.29337 m -6.486737,0.35857 0.06519,0 0,0.35856 -0.06519,0 0,-0.35856 m 6.16077,3.16187 0.162983,-2.96629 0.162984,0 -0.325967,2.96629 m -5.704416,9.42044 -0.19558,-0.19558 c 0.06519,-1.49944 0.06519,-4.62872 0,-9.38784 0.108654,1.26042 0.162982,2.83592 0.162983,4.72652 -10e-7,2.95543 0.01086,4.5744 0.0326,4.8569 m 5.769609,-8.37734 c -0.217318,-0.2825 -0.271645,-0.5324 -0.162983,-0.74973 -7e-6,0.17386 0.05432,0.42377 0.162983,0.74973 m -0.06519,1.07569 0,0 m 4.40055,3.25966 -0.162984,0.19558 0.162984,-0.19558 m -0.88011,0.26078 0.09779,0 0,-0.13039 -0.09779,0 0,0.13039 m -4.59613,1.07569 0.521547,-0.19558 0.456353,0 -0.9779,0.19558 m -4.759113,3.52044 -0.06519,0.0652 0,-0.68453 c 0.130385,0.32597 0.152116,0.53241 0.06519,0.61934 m 0,1.20607 -0.06519,-0.88011 0.619336,0.61934 -0.554143,0.26077 m 6.421543,-0.32596 c -0.02174,0 -0.315109,0.0652 -0.88011,0.19558 -0.565015,0.10865 -0.96704,0.15212 -1.206077,0.13038 0.347692,-0.21731 1.043087,-0.32596 2.086187,-0.32596 m -3.52044,0.61933 c -0.239046,0.0217 -0.554147,-0.0109 -0.945303,-0.0978 l 0.358563,-0.19558 -0.09779,-0.0652 0.68453,0 0,0.35856 m -0.88011,0.88011 0.09779,-0.0978 0.88011,0 -0.9779,0.0978"
         id="path3355"
         style="font-size:32.59666443px;font-style:normal;font-variant:normal;font-weight:bold;font-stretch:normal;text-align:start;line-height:125%;letter-spacing:0px;word-spacing:0px;writing-mode:lr-tb;text-anchor:start;fill:#434f6d;fill-opacity:1;stroke:none;font-family:appo paint;-inkscape-font-specification:appo paint" />
      <path
         d="m 87.135988,206.00216 c 0.173845,0.10869 0.510677,0.59763 1.010497,1.46685 0.369423,0.6085 0.836642,0.88014 1.401657,0.81492 l 0,0.39116 c -7e-6,2e-5 -0.05433,0.0217 -0.162984,0.0652 -0.02174,0.0869 0.02172,0.17388 0.130387,0.26078 0.108649,0.0869 0.162977,0.14127 0.162983,0.16298 l -0.717126,-0.71713 -0.09779,0.0978 c 0.456347,0.52157 0.967027,1.37995 1.532043,2.57514 0.586732,1.19523 1.097412,2.05361 1.532043,2.57514 0.956159,-0.89096 2.020982,-2.22742 3.194473,-4.00939 1.303853,-2.02097 2.292618,-3.4009 2.966297,-4.13978 l 0.228176,0.0978 c -0.06521,0.0652 -0.0978,0.11955 -0.09779,0.16298 -1.5e-5,0.0435 0.04345,0.11955 0.130387,0.22818 0.08691,0.10868 0.119506,0.21734 0.09779,0.32597 l 0.521547,-0.61934 c -0.347714,0.41292 -0.804067,1.05398 -1.36906,1.9232 l 0.06519,0.0652 c 0.347683,-0.21729 0.706246,-0.58672 1.07569,-1.10829 0.478068,-0.65191 0.804034,-1.0648 0.9779,-1.23867 0.08691,0.17387 0.206428,0.20647 0.358562,0.0978 -0.0217,2e-5 -1e-5,0.0543 0.0652,0.16298 0.0652,-0.13036 0.14123,-0.19555 0.22817,-0.19558 0.0434,3e-5 0.10864,0.0435 0.19558,0.13039 0.10864,0.087 0.1847,0.13041 0.22818,0.13038 0.0652,3e-5 0.13037,-0.0543 0.19558,-0.16298 0.17383,0.41292 0.45634,0.46725 0.84751,0.16298 0.32595,-0.26074 0.51067,-0.16295 0.55415,0.29337 -0.30426,0.36946 -0.52157,0.82581 -0.65194,1.36906 -0.78233,0.86927 -1.814564,2.37958 -3.096682,4.53094 -1.216957,2.02101 -2.270914,3.48786 -3.161877,4.40055 0.02172,0.0435 0.09778,0.0652 0.228177,0.0652 -0.04348,0.0652 -0.0978,0.0761 -0.162983,0.0326 -0.08694,-0.0652 -0.130399,-0.0978 -0.130387,-0.0978 -0.06521,2e-5 -0.108668,0.0435 -0.130387,0.13039 -0.02174,0.0869 0.02172,0.4781 0.130387,1.17348 l -0.29337,-0.29337 -0.06519,0.0652 -0.29337,-0.26077 -0.521547,0.55414 c 0.06518,0.52156 0.228165,1.44513 0.48895,2.77072 0.260762,1.17349 0.391148,2.11879 0.39116,2.83591 0.02172,0.47809 -0.02174,1.20608 -0.130386,2.18397 -0.08694,0.97791 -0.130399,1.7059 -0.130387,2.18398 -1.2e-5,0.76059 0.08691,1.43426 0.260773,2.02099 -0.108667,0 -0.249919,-0.0978 -0.423756,-0.29337 -0.173861,-0.19557 -0.304247,-0.29336 -0.39116,-0.29337 -0.08694,1e-5 -0.17386,0.0543 -0.260774,0.16299 -0.04347,0.15212 -0.03261,0.35856 0.0326,0.61933 0.06518,0.23905 0.07605,0.43463 0.0326,0.58674 -1.2e-5,-0.0217 -0.02174,-0.0652 -0.06519,-0.13038 -0.239053,0.17385 -0.412901,0.2499 -0.521546,0.22817 -0.04347,-0.13038 -0.162994,-0.30423 -0.358564,-0.52154 -0.08693,0.0869 -0.239052,0.0978 -0.456353,0.0326 -0.260783,-0.0652 -0.456363,-0.0761 -0.58674,-0.0326 -0.0652,0.19558 -0.173858,0.29337 -0.325967,0.29337 -0.04347,0 -0.119529,-0.0217 -0.228176,-0.0652 -0.108664,-0.0435 -0.195589,-0.0652 -0.260774,-0.0652 -0.130394,0 -0.23905,0.0652 -0.325966,0.19558 -0.108664,-0.10865 -0.206454,-0.15212 -0.29337,-0.13039 -8e-6,0.10866 0.05432,0.29337 0.162983,0.55415 0.108648,0.26077 0.173841,0.43462 0.19558,0.52154 -0.478092,-0.9127 -0.880117,-1.96666 -1.206076,-3.16187 -0.04347,-0.71713 -0.0326,-1.67329 0.0326,-2.86851 0.06519,-1.41251 0.09778,-2.34695 0.09779,-2.80331 -7e-6,-1.67329 -0.249914,-3.05321 -0.749723,-4.13978 l -0.19558,0.19558 c -0.108662,-0.10864 -0.18472,-0.1521 -0.228177,-0.13039 0.130381,-0.10864 0.271633,-0.28249 0.423757,-0.52154 -0.02174,-0.23903 -0.184721,-0.54327 -0.48895,-0.91271 -0.304241,-0.36941 -0.467224,-0.67365 -0.48895,-0.91271 -0.521551,-0.73884 -1.369064,-2.15136 -2.54254,-4.23756 -1.043095,-1.84713 -1.944935,-3.27051 -2.705523,-4.27017 l 0,-0.19558 c 0.239042,0.0435 0.358563,0.0652 0.358563,0.0652 0.80405,1.21696 1.618966,2.42304 2.44475,3.61823 0.912703,1.43427 1.597232,2.69467 2.05359,3.78121 0.173844,0.23906 0.467214,0.58676 0.88011,1.04309 0.06519,-0.0652 0.09778,-0.1195 0.09779,-0.16298 -6e-6,-0.0435 -0.04347,-0.1195 -0.130387,-0.22818 -0.08693,-0.10864 -0.119526,-0.20643 -0.09779,-0.29337 -0.456358,-0.93442 -1.173484,-2.18395 -2.15138,-3.74861 -1.086557,-1.78193 -1.825414,-3.0206 -2.216573,-3.71602 -0.108656,-0.1521 -0.162984,-0.402 -0.162983,-0.74973 0.02173,-0.45632 0.02173,-0.69537 0,-0.71712 0.06519,0.15214 0.152116,0.2282 0.260773,0.22817 0.02173,3e-5 0.07606,-0.0108 0.162984,-0.0326 0.06519,2e-5 0.119519,2e-5 0.162983,0 0.08692,2e-5 0.162981,0.0326 0.228177,0.0978 0.152115,2e-5 0.228174,-0.1195 0.228176,-0.35857 l -0.09779,-0.0652 0.09779,-0.0652 0.130387,0.13038 c 0.23904,-0.32594 0.467216,-0.48892 0.68453,-0.48895 0.130383,3e-5 0.239039,0.0652 0.325966,0.19558 -0.02173,0.0435 -3e-6,0.0978 0.06519,0.16299 0.08692,-0.0869 0.09779,-0.21729 0.0326,-0.39116 -0.04346,-0.19556 -3e-6,-0.32594 0.130387,-0.39116 0.217307,-0.0652 0.35856,2e-5 0.423757,0.19558 0.08692,0.17387 0.162979,0.34772 0.228176,0.52154 m 0.58674,0.19558 0.130387,0.22818 -0.130387,-0.22818 m -0.945303,0.35857 0.06519,0 0,0.0652 -0.06519,0 0,-0.0652 m 11.408833,0.0652 -0.358564,0.58674 0.358564,-0.58674 m -8.866293,0.58674 c -0.04347,0.0218 -0.08693,0.0326 -0.130387,0.0326 -0.0652,2e-5 -0.130392,-0.0543 -0.19558,-0.16299 -0.0652,-0.13036 -0.108661,-0.20642 -0.130386,-0.22817 l 0.456353,0.35856 m 7.692813,1.59724 -0.162984,0 0.749724,-1.07569 c -0.04348,0.087 -0.162998,0.24993 -0.358564,0.48895 -0.173863,0.21733 -0.249921,0.41291 -0.228176,0.58674 m -0.162984,-0.35857 -1.07569,1.59724 1.07569,-1.59724 m 4.139772,0.45636 0,0 m -5.802201,2.44475 1.662429,-2.31437 -1.36906,2.05359 -0.293369,0.26078 m 3.064086,1.66243 -0.29337,0.45635 0.29337,-0.45635 m -2.020993,2.64033 0.130386,-0.29337 0.130387,0 -0.260773,0.29337 m -0.228177,0.22817 0.06519,-0.0652 0.06519,0.0652 -0.130387,0 m -7.399443,0.78232 0,0 m 0.130387,0.94531 -0.130387,0 c -0.04347,0.84752 0.02173,1.69504 0.19558,2.54254 -0.239047,-1.80367 -0.358568,-2.69465 -0.358563,-2.67293 0.06519,10e-6 0.162978,0.0435 0.29337,0.13039"
         id="path3357"
         style="font-size:32.59666443px;font-style:normal;font-variant:normal;font-weight:bold;font-stretch:normal;text-align:start;line-height:125%;letter-spacing:0px;word-spacing:0px;writing-mode:lr-tb;text-anchor:start;fill:#434f6d;fill-opacity:1;stroke:none;font-family:appo paint;-inkscape-font-specification:appo paint" />
      <path
         d="m 131.41702,207.17564 c 0.565,0.78235 1.13001,1.5538 1.69503,2.31437 0.60846,0.91273 0.91269,1.78197 0.91271,2.60773 0.0434,0.1956 0.0652,0.39118 0.0652,0.58674 -2e-5,0.8258 -0.34771,1.72764 -1.04309,2.70552 -0.58676,0.73888 -1.1735,1.47773 -1.76022,2.21658 -0.58676,1.08657 -1.93408,2.50995 -4.04199,4.27016 -1.97754,1.69503 -3.25967,3.15102 -3.84641,4.36795 0.43462,0.0869 0.90184,0.13039 1.40166,0.13039 0.6302,0 2.07531,-0.20644 4.33536,-0.61934 0.17384,1e-5 0.47807,-0.0326 0.9127,-0.0978 0.43461,-0.0652 0.76058,-0.0978 0.9779,-0.0978 0.71712,1e-5 1.18434,0.24992 1.40166,0.74973 -0.0435,0.0652 -0.0652,0.14125 -0.0652,0.22817 -2e-5,0.0652 0.0435,0.17386 0.13038,0.32597 0.0869,0.15212 0.13038,0.26078 0.13039,0.32597 -0.4129,-0.0435 -0.61935,0.0869 -0.61934,0.39116 0.19557,0.32597 0.29336,0.59761 0.29337,0.81491 -1e-5,0.19559 -0.0978,0.48896 -0.29337,0.88011 l 0.26078,0.19558 c -0.21733,0.17385 -0.57589,0.27164 -1.07569,0.29337 -0.36944,0 -0.74974,0 -1.14089,0 -0.23905,0.0217 -0.43463,0.0543 -0.58674,0.0978 -1.3256,0.28251 -3.72689,0.56501 -7.20386,0.84752 -0.0435,0.0217 -0.18472,0.0109 -0.42376,-0.0326 -0.23904,-0.0217 -0.40202,-0.0109 -0.48895,0.0326 -0.17385,0.0652 -0.23904,0.20644 -0.19557,0.42375 -0.0652,0.0217 -0.11953,0.0326 -0.16299,0.0326 -0.10866,0 -0.23904,-0.0761 -0.39116,-0.22818 -0.13039,-0.15211 -0.23904,-0.22817 -0.32596,-0.22817 -0.0652,0 -0.14126,0.0435 -0.22818,0.13038 l 0.0652,0.0326 c -0.0652,0.0869 -0.0978,0.23904 -0.0978,0.45635 -0.0652,-0.19558 -0.18471,-0.29337 -0.35856,-0.29337 -0.0435,0 -0.11952,0.0109 -0.22818,0.0326 -0.0869,0 -0.15212,0 -0.19558,0 -0.0869,0 -0.15212,-0.0326 -0.19558,-0.0978 l 0,-0.55414 c -0.15212,0 -0.27164,0.0978 -0.35856,0.29337 -0.0652,0.19558 -0.11952,0.3151 -0.16298,0.35856 -0.30424,-0.60847 -0.45636,-1.30387 -0.45636,-2.08619 0,-0.84751 0.18472,-1.71675 0.55415,-2.60773 0.82578,-3.28139 3.2162,-6.24768 7.17126,-8.89889 0.19557,-0.0869 0.41288,-0.27162 0.65193,-0.55414 0.23904,-0.28249 0.42375,-0.47807 0.55415,-0.58674 l -0.0652,-0.0652 0.26078,-0.13038 2.34696,-2.60774 c 0.10864,-0.21729 0.16297,-0.4346 0.16298,-0.65193 -1e-5,-0.23902 -0.26078,-0.86922 -0.78232,-1.89061 -1.0431,-0.67364 -1.89061,-0.96701 -2.54254,-0.88011 -1e-5,-0.0434 0.0109,-0.0652 0.0326,-0.0652 -0.45636,0.0652 -0.97791,0.23906 -1.56464,0.52155 -0.47809,0.26079 -0.96704,0.53243 -1.46685,0.81491 -1.82542,1.47774 -2.97717,2.89026 -3.45525,4.23757 -0.10866,2e-5 -0.20645,-0.0869 -0.29337,-0.26077 -0.0869,-0.19557 -0.18471,-0.30422 -0.29337,-0.32597 -0.0869,-0.0435 -0.20645,-0.28249 -0.35856,-0.71713 -0.13039,-0.30421 -0.29337,-0.52152 -0.48895,-0.65193 0.0217,-0.13037 -0.0217,-0.22816 -0.13039,-0.29337 -0.10865,-0.0652 -0.21731,-0.13037 -0.32596,-0.19558 0.0652,-0.17383 0.15211,-0.45633 0.26077,-0.84751 -0.0435,-0.0435 -0.14125,-0.0326 -0.29337,0.0326 -0.13039,0.0652 -0.22818,0.0326 -0.29337,-0.0978 0.26077,-1.12999 1.37992,-2.56425 3.35746,-4.30276 0.43461,-0.26075 1.07568,-0.64104 1.9232,-1.14088 -0.0217,3e-5 -0.15212,-0.0217 -0.39116,-0.0652 0.10865,0.0652 0.2173,0.0978 0.32596,0.0978 0.13039,2e-5 0.29337,-0.076 0.48895,-0.22818 0.19558,-0.15209 0.36943,-0.23902 0.52155,-0.26077 -0.0869,-0.0217 -0.13039,-0.1195 -0.13039,-0.29337 0,-0.0869 -0.0217,-0.15209 -0.0652,-0.19558 0.26077,0.0217 0.5976,-0.0434 1.0105,-0.19558 0.565,-0.19556 0.9127,-0.30421 1.04309,-0.32597 0.30423,-0.0652 0.60846,-0.0978 0.91271,-0.0978 0.76058,3e-5 1.58636,0.21734 2.47734,0.65193 0.76058,0.43465 1.5103,0.85841 2.24917,1.27127 m -13.13645,5.08508 c 0.26077,-0.73883 0.89097,-1.67327 1.89061,-2.80331 l -0.0652,0.39116 -1.82541,2.41215 m 9.12706,-2.57513 c -0.0869,2e-5 -0.22818,0.0109 -0.42375,0.0326 0.10864,3e-5 0.2499,-0.0108 0.42375,-0.0326 m 0.39116,0.35856 0.0652,-0.19558 c 0.2173,0.10868 0.51067,0.32599 0.88011,0.65193 -0.23906,-0.15209 -0.74974,-0.3694 -1.53205,-0.65193 0.10865,-0.0217 0.30423,0.0435 0.58674,0.19558 m -1.72762,0.19558 0.13039,0 0,-0.0978 -0.13039,0 0,0.0978 m -0.48895,0.26077 0,0 m -0.91271,0.48895 0.13039,0 0,-0.0978 -0.13039,0 0,0.0978 m -0.55414,0.39116 0.26077,-0.26077 0.0652,0 -0.32597,0.26077 m -0.13039,0.0652 c -0.0652,0.0217 -0.16298,0.0978 -0.29337,0.22817 0,2e-5 0.0978,-0.076 0.29337,-0.22817 m -0.48895,0.35856 c 0,0.0435 -0.0326,0.0978 -0.0978,0.16298 l 0,-0.16298 0.0978,0 m -0.22817,0.29337 c -1.21695,1.19523 -1.92321,2.35784 -2.11878,3.48784 -0.19559,0.10868 -0.34771,0.35858 -0.45636,0.74973 0.0869,-1.4777 0.9453,-2.89022 2.57514,-4.23757 m -5.24806,1.27127 0.0978,0 0,-0.13039 -0.0978,0 0,0.13039 m 13.72319,4.10718 c -0.0652,0.0869 -0.17386,0.21733 -0.32597,0.39116 0.0869,-0.2173 0.19557,-0.34768 0.32597,-0.39116"
         id="path3359"
         style="font-size:32.59666443px;font-style:normal;font-variant:normal;font-weight:bold;font-stretch:normal;text-align:start;line-height:125%;letter-spacing:0px;word-spacing:0px;writing-mode:lr-tb;text-anchor:start;fill:#434f6d;fill-opacity:1;stroke:none;font-family:appo paint;-inkscape-font-specification:appo paint" />
      <path
         d="m 155.2238,205.25244 0,0 m -3.12928,3.78121 c 0.76057,0.95619 1.18433,1.81457 1.27127,2.57514 0.45633,0.93446 0.71711,2.10794 0.78232,3.52044 -0.0217,1.26042 -0.0326,2.52082 -0.0326,3.78121 -0.52156,3.43353 -1.29302,6.2477 -2.31436,8.44254 -0.21733,0.17385 -0.48897,0.55415 -0.81492,1.14088 -0.28252,0.47809 -0.59762,0.78233 -0.9453,0.91271 -0.10867,0.21731 -0.33685,0.40203 -0.68453,0.55414 -0.32598,0.13039 -0.55416,0.28251 -0.68453,0.45636 -0.1304,0.0869 -0.46723,0.0869 -1.0105,0 -0.4129,-0.0652 -0.66281,0.0761 -0.74972,0.42375 -0.32598,0.0217 -0.7932,0.0869 -1.40166,0.19558 l 0.48895,0.29337 c -0.0652,0.0652 -0.16299,0.0978 -0.29337,0.0978 0.19557,0 -0.17386,-0.0869 -1.10828,-0.26077 -3.84642,-0.0217 -6.47588,-1.20608 -7.8884,-3.55304 -1.21694,-2.04272 -1.82541,-3.80293 -1.82541,-5.28066 0,-0.65192 0.0978,-1.29299 0.29337,-1.9232 0,-3.47696 1.37992,-7.09519 4.13978,-10.85469 1.08655,-1.02134 2.11877,-1.68414 3.09668,-1.9884 l 0,0.0652 c 0.76058,2e-5 1.28213,-0.23902 1.56464,-0.71713 0.60846,-0.26075 1.30386,-0.39113 2.08619,-0.39116 0.86923,3e-5 2.29261,0.28253 4.27016,0.84751 l 1.76022,1.66243 m -2.9011,7.49724 c -0.0435,-0.99962 -0.13041,-2.20569 -0.26078,-3.61823 -0.21732,-0.0869 -0.34771,-0.24989 -0.39116,-0.48895 -0.0435,-0.39114 -0.0869,-0.61932 -0.13038,-0.68453 -0.26079,-0.4998 -0.73887,-0.85836 -1.43426,-1.07569 -1.02137,-0.32595 -1.59724,-0.53239 -1.72762,-0.61934 -0.0652,0.28253 -0.48896,0.65195 -1.27127,1.10829 -0.78233,0.99965 -1.56465,2.47736 -2.34696,4.43314 -0.7606,1.93409 -1.19522,3.54219 -1.30387,4.82431 l 0,0.19558 c -0.17385,0.0217 -0.28251,0.14126 -0.32596,0.35856 -0.0435,0.19559 -0.0869,0.38031 -0.13039,0.55415 0.23904,1.54291 0.55414,2.72726 0.9453,3.55303 0.58674,1.23868 1.44511,2.0536 2.57514,2.44475 1.99925,-0.2173 3.4661,-1.5103 4.40055,-3.879 0.78231,-1.99925 1.24952,-4.36794 1.40166,-7.10607 m -6.19337,-9.09447 0.0326,-0.0652 c -0.0435,3e-5 -0.1304,0.0218 -0.26078,0.0652 l 0.0652,-0.0652 c 0.0869,0.0435 0.14124,0.0652 0.16298,0.0652 m 2.80331,10.30054 0.13039,0 0,-0.13038 -0.13039,0 0,0.13038"
         id="path3361"
         style="font-size:32.59666443px;font-style:normal;font-variant:normal;font-weight:bold;font-stretch:normal;text-align:start;line-height:125%;letter-spacing:0px;word-spacing:0px;writing-mode:lr-tb;text-anchor:start;fill:#434f6d;fill-opacity:1;stroke:none;font-family:appo paint;-inkscape-font-specification:appo paint" />
      <path
         d="m 162.09279,230.77565 c -1e-5,-0.0217 -0.0217,-0.0543 -0.0652,-0.0978 -0.0217,-0.0652 -0.0326,-0.11952 -0.0326,-0.16298 l -0.26078,-0.0652 c 0.17385,-0.34769 0.19558,-0.85837 0.0652,-1.53204 l -0.19558,-1.07569 c 0.32596,1.56464 0.48894,2.54254 0.48895,2.9337 m -0.45634,-3.16188 -0.0326,0.0652 -0.0652,-0.39116 c 0.0869,-0.0435 0.13039,-0.0217 0.13039,0.0652 0,0.21731 -0.0109,0.30424 -0.0326,0.26077 m 1e-5,-1.43427 c -0.0652,1e-5 -0.0869,0.0326 -0.0652,0.0978 0.0217,0.0435 0.0109,0.0869 -0.0326,0.13039 0.10865,-0.21731 0.49916,-0.60847 0.45571,-1.17348 l -0.35791,0.9453 m 0.26011,-3.09669 0.0652,0 0,0.22817 -0.0652,0 0,-0.22817 m -0.0293,-1.79282 0.0978,0 0,0.29337 -0.0978,0 0,-0.29337 m 0.32596,-5.01989 0.0978,0 0,0.26078 -0.0978,0 0,-0.26078 m 0.29336,0.0652 -0.13038,-0.42376 -0.0652,0.0652 0,-0.13038 0.13039,0 0.0652,0.48895 m -6.04994,-3.0967 -0.0978,0.19558 0.0978,-0.19558 m 6.04987,6.32376 c -0.0217,0.23905 0,0.56502 0.0652,0.9779 -1e-5,1e-5 0.0326,-0.19557 0.0978,-0.58674 0.13038,0.56502 0.2173,1.26041 0.26077,2.08618 0.0217,1.13003 -0.15534,1.79283 -0.13364,1.9884 -0.17385,-0.89097 -0.24665,-2.24916 -0.61607,-4.07458 -0.0435,-0.13038 -0.0869,-0.27163 -0.13039,-0.42376 -0.0435,-0.17384 -0.0217,-0.32595 0.0652,-0.45635 l -0.13038,-0.13039 c 0.0217,-0.4998 -0.0217,-1.14087 -0.13039,-1.9232 -0.13039,-0.89096 -0.19558,-1.5103 -0.19558,-1.85801 0,-0.34768 0.0326,-1.8157 0.0978,-2.09823 0.32596,-0.26075 0.53241,-0.58672 0.61934,-0.9779 -0.17386,0.5433 -0.19559,2.54373 -0.0652,3.69546 0.0217,2e-5 0.0869,-0.0434 0.19558,-0.13038 -0.10866,-0.63019 -0.0543,-2.77187 0.16299,-4.11922 -0.0869,0.45637 -0.13039,0.95619 -0.13039,1.49945 0,0.41291 0.0217,2.16343 0.0652,2.94573 0.0652,0.78234 0.0978,1.35821 0.0978,1.72763 0,0.69541 -0.0652,1.31474 -0.19558,1.85801 m 0.97784,-9.26949 0.0652,0 0,0.35856 -0.0652,0 0,-0.35856 m -0.24774,-3.99736 0.0978,0 0,0.13039 -0.0978,0 0,-0.13039 m -5e-5,-0.0978 c 0.10865,-0.0434 0.19557,-0.14122 0.26077,-0.29337 0.0652,-0.17382 0.16298,-0.26074 0.29337,-0.26077 0.0435,0.0218 0.0652,0.087 0.0652,0.19558 0,0.10868 0.0543,0.16301 0.16299,0.16298 l 0.13038,-0.16298 c 0,0.13041 0.0217,0.21734 0.0652,0.26077 0.15211,3e-5 0.22817,0.13042 0.22817,0.39116 0,0.23907 0.0435,0.40205 0.13039,0.48895 -1e-5,-0.0869 0.0217,-0.21728 0.0652,-0.39116 0.0652,-0.17382 0.27163,-0.43459 0.61934,-0.78232 l 0.32597,1.17348 c 0.0435,-0.13036 0.17384,-0.22815 0.39116,-0.29337 0.2173,-0.0869 0.32595,-0.21728 0.32596,-0.39116 0.13038,0.0218 0.26077,0.21734 0.39116,0.58674 0.13038,0.36946 0.27163,0.59763 0.42376,0.68453 -1e-5,0.13041 0.0217,0.20647 0.0652,0.22818 0.0435,-0.28248 0.10865,-0.7171 0.19558,-1.30387 0.0217,3e-5 0.0869,-0.0543 0.19558,-0.16298 l 0,0.16298 0.29337,0 c 0.0435,1.08658 0.0652,2.23833 0.0652,3.45525 -1e-5,1.69505 -0.0543,4.18326 -0.16299,7.46464 -0.10866,3.28141 -0.16299,5.74788 -0.16298,7.39944 -1e-5,1.62984 0.0434,3.16188 0.13039,4.59613 -0.10867,0.0435 -0.24992,0.14125 -0.42376,0.29337 -0.0869,-0.0652 -0.22819,-0.16298 -0.42376,-0.29337 -0.0435,0.0435 -0.14126,0.29337 -0.29337,0.74972 -0.10866,0.28251 -0.30424,0.40203 -0.58674,0.35857 -0.23905,0.2825 -0.74973,0.35856 -1.53204,0.22817 -0.26078,0.13039 -0.39117,0.23905 -0.39116,0.32597 -0.15213,-0.0435 0.33204,-0.15212 0.17993,-0.32597 -0.1304,-0.19558 -0.26078,-0.3151 -0.39116,-0.35856 l -0.0652,0.9453 c 0.0217,-0.13038 -0.0652,-0.2825 -0.26077,-0.45635 -0.19559,-0.19558 -0.28251,-0.35856 -0.26077,-0.48895 -0.15213,-0.0869 -0.36944,-0.24991 -0.65194,-0.48895 0.0652,-0.21731 0.0978,-0.45635 0.0978,-0.71713 0,-0.30423 -0.0435,-0.73885 -0.13038,-1.30386 -0.0869,-0.56501 -0.14126,-0.98876 -0.16299,-1.27127 -0.0869,-2.04272 0.0787,-4.36795 -0.61673,-6.97569 0.0435,-0.52153 0.0109,-1.23866 -0.0978,-2.15138 -0.13039,-1.04308 -0.19558,-1.77107 -0.19558,-2.18398 0,-0.41287 0.0326,-1.95695 0.0978,-2.3264 -0.0869,-0.0217 -0.7306,1.12032 -0.81752,1.12032 -0.19558,1e-5 -0.47809,0.0652 -0.84751,0.19558 -0.36943,0.1304 -1.27735,0.19559 -1.4512,0.19558 0,1e-5 -0.11952,0.14127 -0.35856,0.42375 0.0652,-0.13037 0.13038,-0.26075 0.19558,-0.39116 0.0435,-0.17383 0,-0.30421 -0.13039,-0.39116 -0.17385,0.10868 -0.45635,0.163 -0.84751,0.16299 -0.36943,1e-5 -0.64107,0.0435 -0.81492,0.13038 0,-0.13037 -0.0217,-0.19556 -0.0652,-0.19558 l -0.13039,0 c 0.26077,-0.73884 0.44549,-1.23865 0.55414,-1.49944 0.21731,-0.54326 0.46722,-1.01048 0.74973,-1.40166 l -0.0652,-0.0652 c 1.06483,-1.36904 1.72762,-2.79243 1.9884,-4.27017 l 0.0652,0.39116 c 0.10866,-0.23901 0.32597,-0.402 0.65194,-0.48895 l 0.13038,0.16299 c 0.36943,-0.52152 0.76059,-0.80403 1.17348,-0.84752 l 0.13039,0.13039 c 0.0217,-0.13036 0.14125,-0.22815 0.35856,-0.29337 0.23904,-0.0869 0.3477,-0.21728 0.32597,-0.39116 l 0,0.19558 0.48895,0 0,-0.32597 c 0.0217,0.0218 0.0435,0.14128 0.0652,0.35857 0.0217,0.1956 0.10865,0.30426 0.26078,0.32596 m -0.81497,-0.94528 0.0652,0 0,0.13039 -0.0652,0 0,-0.13039"
         id="path3363"
         style="font-size:32.59666443px;font-style:normal;font-variant:normal;font-weight:bold;font-stretch:normal;text-align:start;line-height:125%;letter-spacing:0px;word-spacing:0px;writing-mode:lr-tb;text-anchor:start;fill:#434f6d;fill-opacity:1;fill-rule:evenodd;stroke:none;font-family:appo paint;-inkscape-font-specification:appo paint" />
      <path
         d="m 185.26022,207.17564 c 0.56499,0.78235 1.13,1.5538 1.69502,2.31437 0.60846,0.91273 0.91269,1.78197 0.91271,2.60773 0.0434,0.1956 0.0652,0.39118 0.0652,0.58674 -1e-5,0.8258 -0.34771,1.72764 -1.04309,2.70552 -0.58675,0.73888 -1.17349,1.47773 -1.76022,2.21658 -0.58675,1.08657 -1.93408,2.50995 -4.04199,4.27016 -1.97753,1.69503 -3.25967,3.15102 -3.8464,4.36795 0.43461,0.0869 0.90183,0.13039 1.40165,0.13039 0.6302,0 2.07532,-0.20644 4.33536,-0.61934 0.17384,1e-5 0.47807,-0.0326 0.91271,-0.0978 0.43461,-0.0652 0.76057,-0.0978 0.9779,-0.0978 0.71711,1e-5 1.18433,0.24992 1.40165,0.74973 -0.0435,0.0652 -0.0652,0.14125 -0.0652,0.22817 -1e-5,0.0652 0.0434,0.17386 0.13039,0.32597 0.0869,0.15212 0.13037,0.26078 0.13038,0.32597 -0.4129,-0.0435 -0.61935,0.0869 -0.61933,0.39116 0.19556,0.32597 0.29335,0.59761 0.29337,0.81491 -2e-5,0.19559 -0.0978,0.48896 -0.29337,0.88011 l 0.26077,0.19558 c -0.21733,0.17385 -0.57589,0.27164 -1.07569,0.29337 -0.36944,0 -0.74974,0 -1.14088,0 -0.23906,0.0217 -0.43464,0.0543 -0.58674,0.0978 -1.32561,0.28251 -3.7269,0.56501 -7.20387,0.84752 -0.0435,0.0217 -0.18471,0.0109 -0.42375,-0.0326 -0.23905,-0.0217 -0.40203,-0.0109 -0.48895,0.0326 -0.17385,0.0652 -0.23905,0.20644 -0.19558,0.42375 -0.0652,0.0217 -0.11953,0.0326 -0.16299,0.0326 -0.10865,0 -0.23904,-0.0761 -0.39116,-0.22818 -0.13039,-0.15211 -0.23904,-0.22817 -0.32596,-0.22817 -0.0652,0 -0.14126,0.0435 -0.22818,0.13038 l 0.0652,0.0326 c -0.0652,0.0869 -0.0978,0.23904 -0.0978,0.45635 -0.0652,-0.19558 -0.18471,-0.29337 -0.35856,-0.29337 -0.0435,0 -0.11952,0.0109 -0.22818,0.0326 -0.0869,0 -0.15212,0 -0.19558,0 -0.0869,0 -0.15211,-0.0326 -0.19558,-0.0978 l 0,-0.55414 c -0.15211,0 -0.27164,0.0978 -0.35856,0.29337 -0.0652,0.19558 -0.11952,0.3151 -0.16298,0.35856 -0.30424,-0.60847 -0.45636,-1.30387 -0.45636,-2.08619 0,-0.84751 0.18472,-1.71675 0.55415,-2.60773 0.82578,-3.28139 3.2162,-6.24768 7.17126,-8.89889 0.19558,-0.0869 0.41289,-0.27162 0.65194,-0.55414 0.23903,-0.28249 0.42374,-0.47807 0.55414,-0.58674 l -0.0652,-0.0652 0.26077,-0.13038 2.34696,-2.60774 c 0.10864,-0.21729 0.16297,-0.4346 0.16298,-0.65193 -1e-5,-0.23902 -0.26078,-0.86922 -0.78232,-1.89061 -1.0431,-0.67364 -1.89061,-0.96701 -2.54254,-0.88011 0,-0.0434 0.0109,-0.0652 0.0326,-0.0652 -0.45636,0.0652 -0.97791,0.23906 -1.56464,0.52155 -0.47809,0.26079 -0.96704,0.53243 -1.46685,0.81491 -1.82542,1.47774 -2.97716,2.89026 -3.45525,4.23757 -0.10865,2e-5 -0.20644,-0.0869 -0.29337,-0.26077 -0.0869,-0.19557 -0.18471,-0.30422 -0.29337,-0.32597 -0.0869,-0.0435 -0.20644,-0.28249 -0.35856,-0.71713 -0.13039,-0.30421 -0.29337,-0.52152 -0.48895,-0.65193 0.0217,-0.13037 -0.0217,-0.22816 -0.13039,-0.29337 -0.10865,-0.0652 -0.21731,-0.13037 -0.32596,-0.19558 0.0652,-0.17383 0.15212,-0.45633 0.26077,-0.84751 -0.0435,-0.0435 -0.14125,-0.0326 -0.29337,0.0326 -0.13039,0.0652 -0.22818,0.0326 -0.29337,-0.0978 0.26077,-1.12999 1.37993,-2.56425 3.35746,-4.30276 0.43462,-0.26075 1.07568,-0.64104 1.9232,-1.14088 -0.0217,3e-5 -0.15212,-0.0217 -0.39116,-0.0652 0.10865,0.0652 0.21731,0.0978 0.32597,0.0978 0.13038,2e-5 0.29336,-0.076 0.48895,-0.22818 0.19557,-0.15209 0.36942,-0.23902 0.52154,-0.26077 -0.0869,-0.0217 -0.13039,-0.1195 -0.13038,-0.29337 -1e-5,-0.0869 -0.0217,-0.15209 -0.0652,-0.19558 0.26077,0.0217 0.5976,-0.0434 1.0105,-0.19558 0.565,-0.19556 0.9127,-0.30421 1.04309,-0.32597 0.30423,-0.0652 0.60847,-0.0978 0.91271,-0.0978 0.76058,3e-5 1.58636,0.21734 2.47735,0.65193 0.76057,0.43465 1.5103,0.85841 2.24917,1.27127 m -13.13646,5.08508 c 0.26077,-0.73883 0.89098,-1.67327 1.89061,-2.80331 l -0.0652,0.39116 -1.82541,2.41215 m 9.12707,-2.57513 c -0.0869,2e-5 -0.22819,0.0109 -0.42376,0.0326 0.10865,3e-5 0.2499,-0.0108 0.42376,-0.0326 m 0.39116,0.35856 0.0652,-0.19558 c 0.2173,0.10868 0.51067,0.32599 0.88011,0.65193 -0.23905,-0.15209 -0.74973,-0.3694 -1.53204,-0.65193 0.10864,-0.0217 0.30422,0.0435 0.58674,0.19558 m -1.72763,0.19558 0.13039,0 0,-0.0978 -0.13039,0 0,0.0978 m -0.48895,0.26077 0,0 m -0.9127,0.48895 0.13038,0 0,-0.0978 -0.13038,0 0,0.0978 m -0.55415,0.39116 0.26078,-0.26077 0.0652,0 -0.32597,0.26077 m -0.13038,0.0652 c -0.0652,0.0217 -0.16299,0.0978 -0.29337,0.22817 -1e-5,2e-5 0.0978,-0.076 0.29337,-0.22817 m -0.48895,0.35856 c -1e-5,0.0435 -0.0326,0.0978 -0.0978,0.16298 l 0,-0.16298 0.0978,0 m -0.22818,0.29337 c -1.21695,1.19523 -1.92321,2.35784 -2.11878,3.48784 -0.19559,0.10868 -0.3477,0.35858 -0.45636,0.74973 0.0869,-1.4777 0.9453,-2.89022 2.57514,-4.23757 m -5.24806,1.27127 0.0978,0 0,-0.13039 -0.0978,0 0,0.13039 m 13.72319,4.10718 c -0.0652,0.0869 -0.17386,0.21733 -0.32596,0.39116 0.0869,-0.2173 0.19556,-0.34768 0.32596,-0.39116"
         id="path3365"
         style="font-size:32.59666443px;font-style:normal;font-variant:normal;font-weight:bold;font-stretch:normal;text-align:start;line-height:125%;letter-spacing:0px;word-spacing:0px;writing-mode:lr-tb;text-anchor:start;fill:#434f6d;fill-opacity:1;stroke:none;font-family:appo paint;-inkscape-font-specification:appo paint" />
    </g>
    <path
       d="m 549.96063,-339.35256 c -8.2292,-3.73677 -17.29941,-0.0505 -25.04953,3.15609 -3.58709,1.63468 -7.33098,3.58666 -11.41031,2.75279 -5.49373,-3.51266 -10.27428,-9.12818 -17.27163,-9.37548 -10.41281,-0.70321 -20.39954,6.92957 -23.21544,16.83993 -4.3698,12.32026 -3.02967,25.63461 -3.52964,38.45503 -0.5643,5.39756 -6.38168,8.20032 -11.32725,7.74635 -9.20435,-0.37475 -17.12879,-5.75774 -25.45428,-9.10963 -4.00432,-1.62829 -8.19064,-3.84776 -12.57917,-3.67396 -4.63244,1.35169 -5.49616,6.79609 -6.64969,10.81338 -2.08816,7.68791 -4.04029,16.0865 -10.20151,21.63105 -4.61577,4.79478 -9.74148,9.07782 -15.24895,12.81641 -3.22527,4.92867 -1.18695,11.04715 -0.86475,16.46414 1.31741,5.77743 0.80983,13.14145 -4.35289,16.93343 -4.65598,3.21513 -11.3078,3.65402 -14.4175,8.86466 -5.6766,6.66315 -9.25461,14.97227 -11.1883,23.438 -0.6447,8.17162 3.26502,15.77332 6.89479,22.82921 3.60666,5.53855 9.60852,8.61414 15.59067,10.94147 3.80135,1.42039 7.48259,3.73904 9.13445,7.60101 3.90335,5.30294 11.07791,5.81331 16.80488,8.06119 5.8193,1.58119 10.60804,5.46943 14.2899,10.13316 4.46403,4.91609 8.70415,11.22595 7.76965,18.18621 -0.55022,9.750495 -4.49786,19.788076 -1.0332,29.403942 1.97402,5.437622 6.92653,8.804687 10.97735,12.606133 8.59414,7.346725 18.15718,13.465134 27.99518,19.000313 6.61639,2.482913 12.89534,-2.173561 18.00691,-5.855645 5.04426,-3.639408 9.44651,-8.250603 14.9473,-11.205674 5.88247,-1.491825 11.40523,1.894118 16.98185,3.219145 10.85176,3.607924 21.50737,7.966702 32.69093,10.4693 8.45381,0.793169 17.63271,1.204073 25.19881,-3.261721 6.9078,-6.032368 8.26442,-15.673405 12.1222,-23.566973 1.40579,-3.569079 4.51583,-6.725014 8.52903,-6.949476 8.42967,-1.706746 17.66275,-0.255783 25.45291,-4.522994 6.15608,-6.309611 10.60985,-14.156287 13.56908,-22.39061 1.73675,-8.19249 -1.72756,-16.2501 -3.09356,-24.24476 -1.97688,-9.26609 -2.68976,-19.11789 0.52383,-28.20364 1.04393,-3.90991 3.02279,-7.98593 7.04802,-9.51552 7.23791,-3.70196 15.80306,-6.05159 20.70159,-13.03557 5.24515,-6.03146 7.69495,-15.30339 3.46439,-22.54914 -5.10848,-10.04915 -15.08296,-16.12389 -23.04289,-23.64674 -3.34543,-5.07619 -3.748,-11.38368 -4.80856,-17.21409 -0.93951,-6.07227 -1.40484,-12.51557 -4.43712,-17.97321 -4.01516,-4.91817 -10.71052,-5.97828 -16.40649,-7.97463 -6.90798,-1.81552 -14.83738,-4.53633 -17.74462,-11.72754 -3.46074,-6.5478 0.2021,-14.60462 -4.0141,-20.88518 -1.87941,-3.45401 -5.78725,-5.47043 -9.68948,-5.25599 -5.38938,-0.2315 -11.78591,1.65436 -16.18739,-2.49745 -5.99977,-5.18922 -6.03532,-13.60007 -8.83884,-20.45352 -1.39332,-3.06712 -3.37238,-5.98655 -6.63663,-7.2732 z"
       id="path3974-5-6"
       style="fill:#fefff0;fill-opacity:1;stroke:none" />
    <path
       d="m 512.20444,-200.61565 c -2.12372,-0.30833 -4.74991,-0.20869 -6.14065,0.68109 1.18869,20.26242 15.78013,30.73232 34.53849,32.11389 1.1146,-18.29973 -7.4302,-29.75117 -28.39784,-32.79498 z"
       id="path4294"
       style="fill:#008000;fill-opacity:1;stroke:none" />
    <path
       d="m 512.98917,-202.32196 c -2.03657,0.67564 -4.33871,1.94117 -5.18163,3.35922 10.16996,17.57567 27.91612,20.39656 45.30109,13.22894 -7.22938,-16.85337 -20.01296,-23.25989 -40.11946,-16.58816 z"
       id="path4294-1"
       style="fill:#009000;fill-opacity:1;stroke:none;display:inline" />
  </g>
</svg>
