<?xml version="1.0" encoding="UTF-8" standalone="no"?>
<!-- Created with Inkscape (http://www.inkscape.org/) -->

<svg
   xmlns="http://www.w3.org/2000/svg"
   xmlns:svg="http://www.w3.org/2000/svg"
   xmlns:rdf="http://www.w3.org/1999/02/22-rdf-syntax-ns#"
   xmlns:cc="http://creativecommons.org/ns#"
   xmlns:dc="http://purl.org/dc/elements/1.1/"
   version="1.1"
   id="svg"
   width="100"
   height="100">
  <title
     id="title">Tick</title>
  <metadata
     id="metadata">
    <rdf:RDF>
      <cc:Work
         rdf:about="">
        <dc:format>image/svg+xml</dc:format>
        <dc:type
           rdf:resource="http://purl.org/dc/dcmitype/StillImage" />
        <dc:title>Tick</dc:title>
        <dc:date>Jun 24, 2012</dc:date>
        <dc:creator>
          <cc:Agent>
            <dc:title>Luca Wehrstedt</dc:title>
          </cc:Agent>
        </dc:creator>
        <cc:license
           rdf:resource="http://creativecommons.org/licenses/by-sa/3.0/" />
      </cc:Work>
      <cc:License
         rdf:about="http://creativecommons.org/licenses/by-sa/3.0/">
        <cc:permits
           rdf:resource="http://creativecommons.org/ns#Reproduction" />
        <cc:permits
           rdf:resource="http://creativecommons.org/ns#Distribution" />
        <cc:requires
           rdf:resource="http://creativecommons.org/ns#Notice" />
        <cc:requires
           rdf:resource="http://creativecommons.org/ns#Attribution" />
        <cc:permits
           rdf:resource="http://creativecommons.org/ns#DerivativeWorks" />
        <cc:requires
           rdf:resource="http://creativecommons.org/ns#ShareAlike" />
      </cc:License>
    </rdf:RDF>
  </metadata>
  <g
     id="layer">
    <path
       d="m 32.454742,96.47923 c -1.83333,-0.02 -3.85833,-0.1418 -4.5,-0.2712 -0.64167,-0.1295 -1.63522,-0.4813 -2.2079,-0.7818 -0.57268,-0.3005 -1.63604,-1.2648 -2.36303,-2.1429 -0.72699,-0.8781 -2.12224,-2.7966 -3.10055,-4.2633 -0.97831,-1.4666 -2.67695,-3.8666 -3.77473,-5.3333 -1.09779,-1.4667 -3.28399,-4.1493 -4.85822,-5.9614 -1.57423,-1.8121 -3.4105303,-3.9744 -4.0806603,-4.8051 -0.67014,-0.8307 -1.53264,-2.1395 -1.91667,-2.9084 -0.4083,-0.8176 -0.69824,-2.0419 -0.69824,-2.9486 0,-0.8939 0.30499,-2.1993 0.72033,-3.0829 0.39618,-0.8428 1.25868,-2.0578 1.91667,-2.7 0.65798,-0.6422 1.7963298,-1.5804 2.5296703,-2.085 0.73333,-0.5045 1.98469,-1.248 2.7808,-1.6521 0.79611,-0.4042 2.2699,-0.8687 3.2751,-1.0323 1.12264,-0.1827 2.49301,-0.1722 3.55254,0.027 0.94869,0.1785 2.24114,0.5682 2.87211,0.8659 0.63097,0.2978 2.05597,1.1638 3.16666,1.9245 1.1107,0.7607 2.36344,1.8683 2.88676,2.3198 0.52332,0.4515 2.00794,1.8677 3.19628,3.2885 1.18833,1.4208 2.26478,2.5623 2.46225,2.7201 0.16591,-0.2209 1.19163,-1.9975 2.27939,-4.2718 1.08775,-2.2742 3.28372,-6.5867 4.87993,-9.5833 1.5962,-2.9966 3.88819,-7.17334 5.0933,-9.28168 1.20511,-2.10833 3.32503,-5.63333 4.71093,-7.83333 1.3859,-2.2 3.64274,-5.63319 5.01521,-7.62932 1.37247,-1.99612 2.71567,-3.94612 2.98488,-4.33333 0.26922,-0.38721 2.01846,-2.73274 3.88721,-5.21229 1.86876,-2.47954 4.212639,-5.42154 5.208629,-6.53777 0.99599,-1.11623 3.07175,-3.19619 4.61279,-4.62213 1.57658,-1.45883 3.53075,-2.91596 4.46856,-3.33201 0.91666,-0.40666 2.79166,-0.97971 4.16666,-1.27345 1.375,-0.29375 3.67336,-0.68984 5.10746,-0.88022 1.4341,-0.19039 3.71651,-0.34615 5.07202,-0.34615 1.58702,0 2.86913,0.19292 3.60074,0.5418 0.66532,0.31727 1.36071,1.01266 1.67798,1.67798 0.29799,0.62489 0.53649,1.69358 0.52999,2.37486 -0.007,0.68128 -0.20864,1.59369 -0.44921,2.02758 -0.24056,0.43389 -2.3767,2.75889 -4.74697,5.16666 -2.37028,2.40778 -5.55628,5.79794 -7.08,7.53368 -1.52373,1.73574 -4.35159,5.26074 -6.28414,7.83333 -1.93254,2.57259 -5.34393,7.45244 -7.58087,10.84411 -2.23694,3.39166 -5.04609,7.81668 -6.242559,9.83338 -1.19648,2.0166 -2.59144,4.4166 -3.09991,5.3333 -0.50848,0.9167 -1.63426,2.9422 -2.50173,4.5011 -0.86748,1.5589 -2.7837,5.3089 -4.25828,8.3333 -1.47458,3.0244 -4.02761,8.6489 -5.6734,12.4989 -1.64579,3.85 -3.44153,7.9258 -3.99053,9.0574 -0.54899,1.1315 -1.30568,2.4892 -1.68151,3.017 -0.37584,0.5278 -1.41141,1.3559 -2.30126,1.8402 -0.88985,0.4844 -2.58839,1.0381 -3.77453,1.2305 -1.18614,0.1925 -3.65662,0.3338 -5.48995,0.3141 z"
       id="path"
       style="fill:#000000;fill-opacity:1" />
  </g>
</svg>
